<?xml version="1.0" encoding="UTF-8"?>
<svg width="174px" height="1340px" viewBox="0 0 174 1340" version="1.1" xmlns="http://www.w3.org/2000/svg" xmlns:xlink="http://www.w3.org/1999/xlink">
    <title>locality__detail__sprite_v2</title>
    <defs>
        <rect id="path-1" x="0" y="0" width="30" height="30"></rect>
        <rect id="path-3" x="0" y="0" width="30" height="30"></rect>
        <rect id="path-5" x="0" y="0" width="36" height="36"></rect>
        <rect id="path-7" x="0" y="0" width="36" height="36"></rect>
        <rect id="path-9" x="0" y="0" width="36" height="36"></rect>
        <rect id="path-11" x="0" y="0" width="36" height="36"></rect>
        <linearGradient x1="49.2%" y1="50%" x2="49.551%" y2="50%" id="linearGradient-13">
            <stop stop-color="#FFCC33" offset="0%"></stop>
            <stop stop-color="#FFFFFF" offset="100%"></stop>
        </linearGradient>
        <linearGradient x1="49.2%" y1="50%" x2="49.551%" y2="50%" id="linearGradient-14">
            <stop stop-color="#FFCC33" offset="0%"></stop>
            <stop stop-color="#FFFFFF" offset="100%"></stop>
        </linearGradient>
        <rect id="path-15" x="0" y="0" width="65" height="40" rx="6"></rect>
        <rect id="path-17" x="0" y="0" width="65" height="40" rx="6"></rect>
        <path d="M25.011,0.018 L28.875,2.103 C29.5680956,2.47715574 30,3.20136174 30,3.989 L30,18.903 C30,20.086 29.04,21.046 27.857,21.046 L2.143,21.046 C0.959453781,21.046 0,20.0865462 0,18.903 L0,3.989 C0,3.2 0.432,2.477 1.125,2.103 L5.023,0" id="path-19"></path>
        <path d="M25.011,0.018 L28.875,2.103 C29.5680956,2.47715574 30,3.20136174 30,3.989 L30,18.903 C30,20.086 29.04,21.046 27.857,21.046 L2.143,21.046 C0.959453781,21.046 0,20.0865462 0,18.903 L0,3.989 C0,3.2 0.432,2.477 1.125,2.103 L5.023,0" id="path-21"></path>
    </defs>
    <g id="locality__detail__sprite_v2" stroke="none" stroke-width="1" fill="none" fill-rule="evenodd">
        <g transform="translate(0.000000, 21.000000)">
            <g id="Group-2">
                <g id="Group" transform="translate(3.000000, 839.000000)">
                    <g id="icon/rail" transform="translate(13.000000, 13.500000) scale(-1, 1) translate(-13.000000, -13.500000) ">
                        <line x1="13.5" y1="16.5" x2="13.5" y2="27" id="Path-6" stroke="#D8232A"></line>
                        <rect id="Rectangle" stroke="#D8232A" x="7" y="16" width="13" height="11"></rect>
                        <polyline id="Path" stroke="#303030" points="25 12 25 27 1 27 1 12"></polyline>
                        <polygon id="Rectangle" stroke="#303030" points="4.33333333 2 21.6666667 2 26 8.5 1.77635684e-15 8.5"></polygon>
                        <polygon id="Rectangle" stroke="#303030" points="8 0 18 0 19 2 7 2"></polygon>
                        <g id="Group" transform="translate(0.000000, 8.500000)" stroke="#303030">
                            <path d="M0,0 L5.77777778,0 L5.77777778,1.11111111 C5.77777778,2.70660039 4.48437817,4 2.88888889,4 C1.29339961,4 0,2.70660039 0,1.11111111 L0,0 L0,0 Z" id="Rectangle"></path>
                            <path d="M6.74074074,0 L12.5185185,0 L12.5185185,1.11111111 C12.5185185,2.70660039 11.2251189,4 9.62962963,4 C8.03414035,4 6.74074074,2.70660039 6.74074074,1.11111111 L6.74074074,0 L6.74074074,0 Z" id="Rectangle-Copy"></path>
                            <path d="M13.4814815,0 L19.2592593,0 L19.2592593,1.11111111 C19.2592593,2.70660039 17.9658596,4 16.3703704,4 C14.7748811,4 13.4814815,2.70660039 13.4814815,1.11111111 L13.4814815,0 L13.4814815,0 Z" id="Rectangle-Copy-2"></path>
                            <path d="M20.2222222,0 L26,0 L26,1.11111111 C26,2.70660039 24.7066004,4 23.1111111,4 C21.5156218,4 20.2222222,2.70660039 20.2222222,1.11111111 L20.2222222,0 L20.2222222,0 Z" id="Rectangle-Copy-2"></path>
                        </g>
                        <line x1="6.32006199" y1="8.5" x2="8.516365" y2="2" id="Path-2" stroke="#303030"></line>
                        <line x1="12.920062" y1="8.5" x2="12.920062" y2="2" id="Path-2-Copy" stroke="#303030"></line>
                        <line x1="19.720062" y1="8.5" x2="17.516365" y2="2" id="Path-2-Copy-2" stroke="#303030"></line>
                    </g>
                </g>
                <g id="Group" stroke-linecap="round" stroke-linejoin="round" transform="translate(59.000000, 839.000000)" stroke="#AB7C00" stroke-width="1.5">
                    <g id="icon/rail-copy" transform="translate(13.000000, 13.500000) scale(-1, 1) translate(-13.000000, -13.500000) ">
                        <line x1="13.5" y1="16.5" x2="13.5" y2="27" id="Path-6"></line>
                        <rect id="Rectangle" x="7" y="16" width="13" height="11"></rect>
                        <polyline id="Path" points="25 12 25 27 1 27 1 12"></polyline>
                        <polygon id="Rectangle" points="4.33333333 2 21.6666667 2 26 8.5 1.77635684e-15 8.5"></polygon>
                        <polygon id="Rectangle" points="8 0 18 0 19 2 7 2"></polygon>
                        <g id="Group" transform="translate(0.000000, 8.500000)">
                            <path d="M0,0 L5.77777778,0 L5.77777778,1.11111111 C5.77777778,2.70660039 4.48437817,4 2.88888889,4 C1.29339961,4 0,2.70660039 0,1.11111111 L0,0 L0,0 Z" id="Rectangle"></path>
                            <path d="M6.74074074,0 L12.5185185,0 L12.5185185,1.11111111 C12.5185185,2.70660039 11.2251189,4 9.62962963,4 C8.03414035,4 6.74074074,2.70660039 6.74074074,1.11111111 L6.74074074,0 L6.74074074,0 Z" id="Rectangle-Copy"></path>
                            <path d="M13.4814815,0 L19.2592593,0 L19.2592593,1.11111111 C19.2592593,2.70660039 17.9658596,4 16.3703704,4 C14.7748811,4 13.4814815,2.70660039 13.4814815,1.11111111 L13.4814815,0 L13.4814815,0 Z" id="Rectangle-Copy-2"></path>
                            <path d="M20.2222222,0 L26,0 L26,1.11111111 C26,2.70660039 24.7066004,4 23.1111111,4 C21.5156218,4 20.2222222,2.70660039 20.2222222,1.11111111 L20.2222222,0 L20.2222222,0 Z" id="Rectangle-Copy-2"></path>
                        </g>
                        <line x1="6.32006199" y1="8.5" x2="8.516365" y2="2" id="Path-2"></line>
                        <line x1="12.920062" y1="8.5" x2="12.920062" y2="2" id="Path-2-Copy"></line>
                        <line x1="19.720062" y1="8.5" x2="17.516365" y2="2" id="Path-2-Copy-2"></line>
                    </g>
                </g>
                <g id="Group-40" transform="translate(3.000000, 803.000000)">
                    <polyline id="Path" stroke="#303030" stroke-width="1.5" points="20.25 15 27 15 27 27 0 27 0 15 6.75 15"></polyline>
                    <polyline id="Path" stroke="#303030" stroke-width="1.5" points="20.25 18 27 18 27 27 0 27 0 18 6.75 18"></polyline>
                    <path d="M13.5,19 C15.4329966,19 17,20.5670034 17,22.5 L17,27 L17,27 L10,27 L10,22.5 C10,20.5670034 11.5670034,19 13.5,19 Z" id="Rectangle" stroke="#D8232A" stroke-width="1.5"></path>
                    <polygon id="Rectangle" stroke="#303030" stroke-width="1.5" points="7 9 13.5 5 20 9 20 27 7 27"></polygon>
                    <rect id="Rectangle" stroke="#303030" stroke-width="1.5" x="10" y="12" width="1" height="1"></rect>
                    <rect id="Rectangle-Copy-10" stroke="#303030" stroke-width="1.5" x="13" y="12" width="1" height="1"></rect>
                    <rect id="Rectangle-Copy-12" stroke="#303030" stroke-width="1.5" x="16" y="12" width="1" height="1"></rect>
                    <rect id="Rectangle-Copy-5" stroke="#303030" x="23" y="21" width="1" height="3"></rect>
                    <rect id="Rectangle-Copy-9" stroke="#303030" x="3" y="21" width="1" height="3"></rect>
                    <polygon id="Rectangle" stroke="#303030" stroke-width="1.5" points="13.5 0 18.5 0 18.5 2.85494877 13.5 2.85494877 13.5 5 13.5 2.85494877"></polygon>
                </g>
                <g id="Group" stroke-linecap="round" stroke-linejoin="round" transform="translate(59.000000, 803.000000)" stroke="#AB7C00">
                    <g id="Group-40">
                        <polyline id="Path" stroke-width="1.5" points="20.25 15 27 15 27 27 0 27 0 15 6.75 15"></polyline>
                        <polyline id="Path" stroke-width="1.5" points="20.25 18 27 18 27 27 0 27 0 18 6.75 18"></polyline>
                        <path d="M13.5,19 C15.4329966,19 17,20.5670034 17,22.5 L17,27 L17,27 L10,27 L10,22.5 C10,20.5670034 11.5670034,19 13.5,19 Z" id="Rectangle" stroke-width="1.5"></path>
                        <polygon id="Rectangle" stroke-width="1.5" points="7 9 13.5 5 20 9 20 27 7 27"></polygon>
                        <rect id="Rectangle" stroke-width="1.5" x="10" y="12" width="1" height="1"></rect>
                        <rect id="Rectangle-Copy-10" stroke-width="1.5" x="13" y="12" width="1" height="1"></rect>
                        <rect id="Rectangle-Copy-12" stroke-width="1.5" x="16" y="12" width="1" height="1"></rect>
                        <rect id="Rectangle-Copy-5" x="23" y="21" width="1" height="3"></rect>
                        <rect id="Rectangle-Copy-9" x="3" y="21" width="1" height="3"></rect>
                        <polygon id="Rectangle" stroke-width="1.5" points="13.5 0 18.5 0 18.5 2.85494877 13.5 2.85494877 13.5 5 13.5 2.85494877"></polygon>
                    </g>
                </g>
                <g id="Group" transform="translate(3.000000, 767.000000)">
                    <polyline id="Path" stroke="#303030" points="16.7477864 17 22.88 17 26 26 0 26 3.12 17 9.2228289 17"></polyline>
                    <path d="M4.71452041,26 L23.3333932,19.0455445 M21.8328878,26 L17.8811556,21.1823099 M10.523871,23.7928129 L4.71452041,17" id="Shape" stroke="#303030"></path>
                    <circle id="Oval" stroke="#D8232A" cx="13" cy="7" r="3"></circle>
                    <path d="M13,21.6172522 C17.6666667,16.4497462 20,11.5773288 20,7 C20,3.13400675 16.8659932,0 13,0 C9.1340068,0 6,3.13400675 6,7 C6,11.5773288 8.3333333,16.4497462 13,21.6172522 Z" id="Oval" stroke="#303030"></path>
                </g>
                <g id="Group" stroke-linecap="round" stroke-linejoin="round" transform="translate(59.000000, 767.000000)" stroke="#AB7C00" stroke-width="1.5">
                    <g id="icon/rail-copy-3">
                        <polyline id="Path" points="16.7477864 17 22.88 17 26 26 0 26 3.12 17 9.2228289 17"></polyline>
                        <path d="M4.71452041,26 L23.3333932,19.0455445 M21.8328878,26 L17.8811556,21.1823099 M10.523871,23.7928129 L4.71452041,17" id="Shape"></path>
                        <circle id="Oval" cx="13" cy="7" r="3"></circle>
                        <path d="M13,21.6172522 C17.6666667,16.4497462 20,11.5773288 20,7 C20,3.13400675 16.8659932,0 13,0 C9.1340068,0 6,3.13400675 6,7 C6,11.5773288 8.3333333,16.4497462 13,21.6172522 Z" id="Oval"></path>
                    </g>
                </g>
                <g id="Group" transform="translate(3.000000, 731.000000)">
                    <line x1="13.5" y1="16.5" x2="13.5" y2="27" id="Path-6" stroke="#303030"></line>
                    <polyline id="Path" stroke="#303030" points="22.25 9 27 9 27 27 0 27 0 9 4.75 9"></polyline>
                    <rect id="Rectangle" stroke="#303030" x="9" y="16" width="9" height="11"></rect>
                    <polygon id="Rectangle" stroke="#303030" points="5 0 22 0 22 27 5 27"></polygon>
                    <path d="M13.5,4 L13.5,12 M17.5,8 L9.5,8" id="Shape" stroke="#D8232A"></path>
                </g>
                <g id="Group" stroke-linecap="round" stroke-linejoin="round" transform="translate(59.000000, 731.000000)" stroke="#AB7C00" stroke-width="1.5">
                    <g id="icon/rail-copy-4">
                        <line x1="13.5" y1="16.5" x2="13.5" y2="27" id="Path-6"></line>
                        <polyline id="Path" points="22.25 9 27 9 27 27 0 27 0 9 4.75 9"></polyline>
                        <rect id="Rectangle" x="9" y="16" width="9" height="11"></rect>
                        <polygon id="Rectangle" points="5 0 22 0 22 27 5 27"></polygon>
                        <path d="M13.5,4 L13.5,12 M17.5,8 L9.5,8" id="Shape"></path>
                    </g>
                </g>
                <g id="Group" transform="translate(3.000000, 695.000000)">
                    <polygon id="Rectangle" stroke="#303030" stroke-linecap="round" points="2.70460433 0 15.8707291 4 15.8707291 26 26.041026 26 15.8707291 26 2.70460433 26 0 26 2.70460433 26"></polygon>
                    <polyline id="Path" stroke="#D8232A" stroke-linecap="square" points="7.5046043 24.5024286 7.5046043 19.3024286 11.5046043 19.3024286 11.5046043 24.5024286"></polyline>
                    <line x1="5.63166824" y1="7.4686387" x2="12.5046043" y2="7.4686388" id="Path-6" stroke="#303030" stroke-linecap="round"></line>
                    <line x1="18.831668" y1="12.8659512" x2="21.604604" y2="12.8659512" id="Path-6-Copy-3" stroke="#303030" stroke-linecap="round"></line>
                    <line x1="5.63166824" y1="10.4686387" x2="12.5046043" y2="10.4686388" id="Path-6-Copy" stroke="#303030" stroke-linecap="round"></line>
                    <line x1="18.831668" y1="15.8659512" x2="21.604604" y2="15.8659512" id="Path-6-Copy-4" stroke="#303030" stroke-linecap="round"></line>
                    <line x1="5.63166824" y1="13.4686387" x2="12.5046043" y2="13.4686388" id="Path-6-Copy-2" stroke="#303030" stroke-linecap="round"></line>
                    <line x1="18.831668" y1="18.8659512" x2="21.604604" y2="18.8659512" id="Path-6-Copy-5" stroke="#303030" stroke-linecap="round"></line>
                    <polygon id="Rectangle" stroke="#303030" stroke-linecap="round" points="16 8 24.7 9.8659512 24.7 26 16 26"></polygon>
                </g>
                <g id="Group" stroke-linejoin="round" transform="translate(59.000000, 695.000000)" stroke="#AB7C00" stroke-width="1.5">
                    <g id="icon/rail-copy-5">
                        <polygon id="Rectangle" stroke-linecap="round" points="2.70460433 0 15.8707291 4 15.8707291 26 26.041026 26 15.8707291 26 2.70460433 26 0 26 2.70460433 26"></polygon>
                        <polyline id="Path" stroke-linecap="square" points="7.5046043 24.5024286 7.5046043 19.3024286 11.5046043 19.3024286 11.5046043 24.5024286"></polyline>
                        <line x1="5.63166824" y1="7.4686387" x2="12.5046043" y2="7.4686388" id="Path-6" stroke-linecap="round"></line>
                        <line x1="18.831668" y1="12.8659512" x2="21.604604" y2="12.8659512" id="Path-6-Copy-3" stroke-linecap="round"></line>
                        <line x1="5.63166824" y1="10.4686387" x2="12.5046043" y2="10.4686388" id="Path-6-Copy" stroke-linecap="round"></line>
                        <line x1="18.831668" y1="15.8659512" x2="21.604604" y2="15.8659512" id="Path-6-Copy-4" stroke-linecap="round"></line>
                        <line x1="5.63166824" y1="13.4686387" x2="12.5046043" y2="13.4686388" id="Path-6-Copy-2" stroke-linecap="round"></line>
                        <line x1="18.831668" y1="18.8659512" x2="21.604604" y2="18.8659512" id="Path-6-Copy-5" stroke-linecap="round"></line>
                        <polygon id="Rectangle" stroke-linecap="round" points="16 8 24.7 9.8659512 24.7 26 16 26"></polygon>
                    </g>
                </g>
                <g id="Group-84" transform="translate(5.000000, 658.500446)">
                    <path d="M6.15913978,0.875897591 L7.60344853,0.482888405 C9.96960171,-0.160962802 12.4648069,-0.160962802 14.8309601,0.482888405 L16.2752688,0.875897591 C19.3003756,1.69905588 21.4671485,4.35486511 21.6662698,7.48363661 L22.3213258,17.77646 C22.3947475,18.9301271 22.0937665,20.0766729 21.4631598,21.0455247 L20.5361832,22.4697136 C20.2822187,22.8598998 19.8482175,23.0952524 19.3826606,23.0952524 L11.2172043,23.0952524 L11.2172043,23.0952524 L3.05174804,23.0952524 C2.58619109,23.0952524 2.15218995,22.8598998 1.89822539,22.4697136 L0.971248784,21.0455247 C0.340642137,20.0766729 0.0396610543,18.9301271 0.113082753,17.77646 L0.768138761,7.48363661 C0.967260079,4.35486511 3.13403304,1.69905588 6.15913978,0.875897591 Z" id="Rectangle" stroke="#303030" stroke-width="1.5"></path>
                    <polygon id="Combined-Shape" stroke="#303030" points="6 23.4995535 5 25.4995535 18 25.4995535 17 23.4995535 18 23.4995535 20 27.4995535 19 27.4995535 18.249 25.9985535 4.751 25.9985535 4 27.4995535 3 27.4995535 5 23.4995535"></polygon>
                    <path d="M19.1069962,6.74915411 L19.5457972,9.48297282 C19.6421701,10.0833948 19.2335575,10.6482585 18.6331356,10.7446313 C18.5754309,10.7538934 18.5170804,10.7585465 18.4586372,10.7585465 L3.97577144,10.7585465 C3.36766436,10.7585465 2.87469617,10.2655783 2.87469617,9.6574712 C2.87469617,9.599028 2.87934927,9.5406775 2.88861136,9.48297282 L3.32741244,6.74915411 C3.69162735,4.48002215 5.64966693,2.81120246 7.9478428,2.81120246 L14.4865658,2.81120246 C16.7847417,2.81120246 18.7427813,4.48002215 19.1069962,6.74915411 Z" id="Rectangle" stroke="#303030" stroke-width="1.5"></path>
                    <line x1="0" y1="19.8285858" x2="22.4344086" y2="19.8285858" id="Path" stroke="#303030" stroke-width="1.5"></line>
                    <rect id="Rectangle-Copy-6" stroke="#D8232A" stroke-width="1.5" x="3.30322581" y="14.1511664" width="5.33333333" height="2.61505376" rx="1.30752688"></rect>
                    <rect id="Rectangle-Copy-7" stroke="#D8232A" stroke-width="1.5" x="13.7978495" y="14.1511664" width="5.33333333" height="2.61505376" rx="1.30752688"></rect>
                </g>
                <g id="Group-84" transform="translate(61.000000, 658.500446)" stroke="#AB7C00">
                    <path d="M6.15913978,0.875897591 L7.60344853,0.482888405 C9.96960171,-0.160962802 12.4648069,-0.160962802 14.8309601,0.482888405 L16.2752688,0.875897591 C19.3003756,1.69905588 21.4671485,4.35486511 21.6662698,7.48363661 L22.3213258,17.77646 C22.3947475,18.9301271 22.0937665,20.0766729 21.4631598,21.0455247 L20.5361832,22.4697136 C20.2822187,22.8598998 19.8482175,23.0952524 19.3826606,23.0952524 L11.2172043,23.0952524 L11.2172043,23.0952524 L3.05174804,23.0952524 C2.58619109,23.0952524 2.15218995,22.8598998 1.89822539,22.4697136 L0.971248784,21.0455247 C0.340642137,20.0766729 0.0396610543,18.9301271 0.113082753,17.77646 L0.768138761,7.48363661 C0.967260079,4.35486511 3.13403304,1.69905588 6.15913978,0.875897591 Z" id="Rectangle" stroke-width="1.5"></path>
                    <polygon id="Combined-Shape" points="6 23.4995535 5 25.4995535 18 25.4995535 17 23.4995535 18 23.4995535 20 27.4995535 19 27.4995535 18.249 25.9985535 4.751 25.9985535 4 27.4995535 3 27.4995535 5 23.4995535"></polygon>
                    <path d="M19.1069962,6.74915411 L19.5457972,9.48297282 C19.6421701,10.0833948 19.2335575,10.6482585 18.6331356,10.7446313 C18.5754309,10.7538934 18.5170804,10.7585465 18.4586372,10.7585465 L3.97577144,10.7585465 C3.36766436,10.7585465 2.87469617,10.2655783 2.87469617,9.6574712 C2.87469617,9.599028 2.87934927,9.5406775 2.88861136,9.48297282 L3.32741244,6.74915411 C3.69162735,4.48002215 5.64966693,2.81120246 7.9478428,2.81120246 L14.4865658,2.81120246 C16.7847417,2.81120246 18.7427813,4.48002215 19.1069962,6.74915411 Z" id="Rectangle" stroke-width="1.5"></path>
                    <line x1="0" y1="19.8285858" x2="22.4344086" y2="19.8285858" id="Path" stroke-width="1.5"></line>
                    <rect id="Rectangle-Copy-6" stroke-width="1.5" x="3.30322581" y="14.1511664" width="5.33333333" height="2.61505376" rx="1.30752688"></rect>
                    <rect id="Rectangle-Copy-7" stroke-width="1.5" x="13.7978495" y="14.1511664" width="5.33333333" height="2.61505376" rx="1.30752688"></rect>
                </g>
                <g id="Group">
                    <rect id="Rectangle" x="0" y="280.807689" width="44" height="44"></rect>
                    <circle id="Oval" fill="#F5F5F5" fill-rule="nonzero" cx="21.5" cy="302.307689" r="20.5"></circle>
                    <path d="M21.5,322.807689 C32.822,322.807689 42,313.629489 42,302.307689 C42,290.985889 32.8218,281.807689 21.5,281.807689 C10.1782,281.807689 1,290.985889 1,302.307689 C1,313.629489 10.1782,322.807689 21.5,322.807689 Z M21.5,321.554889 C10.87,321.554889 2.253,312.937589 2.253,302.307889 C2.253,291.678189 10.8703,283.060889 21.5,283.060889 C32.1297,283.060889 40.747,291.678189 40.747,302.307889 C40.747,312.937589 32.1297,321.554889 21.5,321.554889 Z" id="Shape" fill="#E8E8E8" fill-rule="nonzero"></path>
                    <path d="M23.17161,295.844879 L22.1887,295.392699 L22.1887,296.741599 L23.17161,295.844849 L23.17161,295.844879 Z M22.1887,309.807879 L23.8044,309.807879 L23.8044,296.741879 L29.8017,302.213179 L30.9969,301.122779 L22.9926,293.807879 L14.9969,301.123079 L16.1918,302.213279 L22.1887,296.742079 L22.1887,309.808079 L22.1887,309.807879 Z M23.8044,296.741879 L23.8044,295.392979 L22.8215,295.845179 L23.8044,296.741859 L23.8044,296.741879 Z M29.7167,300.670179 L29.40921,300.950719 L29.80171,301.402899 L30.0772,301.085499 L29.7167,300.670179 L29.7167,300.670179 Z M22.9965,294.384379 L22.62357,294.724619 L22.62357,295.767919 L23.38586,295.070499 L22.59989,295.070723 L23.36948,295.774023 L23.36948,294.724623 L22.99651,294.384363 L22.9965,294.384379 Z M22.77906,309.202379 L23.21398,309.202379 L23.21398,308.597079 L22.77906,308.597079 L22.77906,309.202379 L22.77906,309.202379 Z M16.19176,301.402779 L16.58426,300.950599 L16.27677,300.670059 L15.91626,301.085389 L16.19176,301.402779 L16.19176,301.402779 Z" id="Shape" fill="#303030" fill-rule="nonzero" transform="translate(22.996900, 301.807979) rotate(90.000000) translate(-22.996900, -301.807979) "></path>
                    <g id="Path-Clipped" transform="translate(0.000000, 501.807689)">
                        <mask id="mask-2" fill="white">
                            <use xlink:href="#path-1"></use>
                        </mask>
                        <g id="path-1"></g>
                        <path d="M11.5,-3.25260652e-19 C5.1496,-3.25260652e-19 0,5.0779 0,11.342 C0,11.46388 0.057117,14.3787 1.0457,16.4574 C3.878,22.9009 11.4897,30.0364 11.4997,29.9998266 C11.512638,30.02382 19.0918,22.928 21.9377,16.4954 C22.78267,14.9705 22.9999,11.5899 22.9999,11.3406 C23.0008467,5.0771 17.8508,-0.0004 11.4999,-0.0004 L11.5,-3.25260652e-19 Z" id="Path" fill="#D8232A" fill-rule="nonzero" mask="url(#mask-2)"></path>
                    </g>
                    <g id="Path-Clipped" transform="translate(0.000000, 501.807689)">
                        <mask id="mask-4" fill="white">
                            <use xlink:href="#path-3"></use>
                        </mask>
                        <g id="path-3"></g>
                        <path d="M7,11.5 C7,13.985 8.7912,15.9996 11,15.9996 C13.2088,15.9996 15,13.985 15,11.5 C15,9.0141 13.2087,6.9996 11,6.9996 C8.7913,6.9996 7,9.0142 7,11.5 Z" id="Path" fill="#FFFFFF" fill-rule="nonzero" mask="url(#mask-4)"></path>
                    </g>
                    <g id="Path-Clipped" transform="translate(0.000000, 197.807689)">
                        <mask id="mask-6" fill="white">
                            <use xlink:href="#path-5"></use>
                        </mask>
                        <g id="path-5"></g>
                        <path d="M13.999,-0.0003 C6.2681,-0.0003 0,6.0935 0,13.611 C0,13.75726 0.069534,17.255 1.273,19.7495 C4.721,27.4817 13.987,36.0435 13.999,36.0000028 C14.014751,36.028804 23.2416,27.5138 26.706,19.7955 C27.7347,17.9656 27.9991,13.9089 27.9991,13.6097 C28.0002525,6.0935 21.7306,-0.0003 13.9981,-0.0003 L13.999,-0.0003 Z" id="Path" fill="#D8232A" fill-rule="nonzero" mask="url(#mask-6)"></path>
                    </g>
                    <g id="Path-Clipped" transform="translate(0.000000, 197.807689)">
                        <mask id="mask-8" fill="white">
                            <use xlink:href="#path-7"></use>
                        </mask>
                        <g id="path-7"></g>
                        <path d="M8,13.5 C8,16.5372 10.239,18.9995 13,18.9995 C15.761,18.9995 18,16.5372 18,13.5 C18,10.4616 15.7609,7.9995 13,7.9995 C10.2391,7.9995 8,10.4618 8,13.5 Z" id="Path" fill="#FFFFFF" fill-rule="nonzero" mask="url(#mask-8)"></path>
                    </g>
                    <g id="Path-Clipped" transform="translate(0.000000, 197.807689)">
                        <mask id="mask-10" fill="white">
                            <use xlink:href="#path-9"></use>
                        </mask>
                        <g id="path-9"></g>
                        <polygon id="Path" fill="#D8232A" fill-rule="nonzero" mask="url(#mask-10)" transform="translate(8.298229, -188.844929) rotate(-45.000000) translate(-8.298229, 188.844929) " points="2.33942914 -189.473929 14.2570291 -189.473929 14.2570291 -188.215929 2.33942914 -188.215929"></polygon>
                    </g>
                    <g id="Path-Clipped" transform="translate(0.000000, 197.807689)">
                        <mask id="mask-12" fill="white">
                            <use xlink:href="#path-11"></use>
                        </mask>
                        <g id="path-11"></g>
                        <polygon id="Path" fill="#D8232A" fill-rule="nonzero" mask="url(#mask-12)" transform="translate(10.759682, -191.083682) rotate(-45.000000) translate(-10.759682, 191.083682) " points="8.0978319 -185.149682 7.1852319 -186.039682 12.5091319 -191.231682 7.4896319 -196.127682 8.4023319 -197.017682 14.3341319 -191.231682"></polygon>
                    </g>
                    <g id="Shape" transform="translate(0.218800, 250.026289)" fill="#909090" fill-rule="nonzero">
                        <path d="M6.7812,13.5624 C10.5264,13.5624 13.5624,10.5263 13.5624,6.7812 C13.5624,3.036 10.5263,-3.60822483e-16 6.7812,-3.60822483e-16 C3.036,-3.60822483e-16 1.11022302e-16,3.0361 1.11022302e-16,6.7812 C1.11022302e-16,10.5264 3.0361,13.5624 6.7812,13.5624 Z M6.7812,12.78115 C3.4675,12.78115 0.7812,10.09485 0.7812,6.78115 C0.7812,3.46745 3.4675,0.78115 6.7812,0.78115 C10.0949,0.78115 12.7812,3.46745 12.7812,6.78115 C12.7812,10.09485 10.0949,12.78115 6.7812,12.78115 Z"></path>
                        <path d="M5.9776,3.6316 C5.9776,3.14217 6.24545,2.89746 6.78117,2.89746 C7.31689,2.89746 7.58474,3.14217 7.58474,3.6316 C7.58474,3.86482 7.517776,4.0463 7.38385,4.17605 C7.249924,4.3058 7.04903,4.37067 6.78117,4.37067 C6.24545,4.37067 5.9776,4.12432 5.9776,3.6316 L5.9776,3.6316 Z M7.4508,10.6653 L5.9776,10.6653 L5.9776,5.0403 L7.4508,5.0403 L7.4508,10.6653 Z"></path>
                    </g>
                    <rect id="Rectangle" x="0" y="340.807689" width="26" height="26"></rect>
                    <g id="Path" transform="translate(0.250330, 342.031689)" fill="#979797" fill-rule="nonzero">
                        <polygon points="1.00327 1.1527 24.36267 24.338 25.51167 23.198 2.15227 0.0122"></polygon>
                        <polygon transform="translate(12.749835, 12.174900) scale(-1, 1) rotate(-180.000000) translate(-12.749835, -12.174900) " points="1.77635684e-15 1.1645 24.37467 24.3498 25.49967 23.1858 1.12437 0"></polygon>
                    </g>
                    <rect id="Rectangle" x="0" y="548.807689" width="18" height="18"></rect>
                    <polygon id="Path" fill="#B2B2B2" fill-rule="nonzero" points="0 553.807689 17 553.807689 8.5 561.807689"></polygon>
                    <polygon id="Path" fill="url(#linearGradient-13)" fill-rule="nonzero" points="10.5 433.387689 4.0106 436.807689 5.25 429.567689 0 424.447689 7.2553 423.387689 10.5 416.807689 13.745 423.387689 21 424.447689 15.75 429.567689 16.989 436.807689"></polygon>
                    <path d="M10.5,433.387689 L4.0106,436.804089 L5.25,429.567989 L0,424.443389 L7.2553,423.387689 L10.5,416.804089 L13.7447,423.387689 L21,424.443389 L15.75,429.567989 L16.9894,436.804089 L10.5,433.387689 Z M10.5,432.769109 L16.2632,435.803209 L15.1625,429.376909 L19.825,424.825709 L13.3816,423.888119 L10.5,418.041219 L7.6184,423.888119 L1.175,424.825709 L5.8375,429.376909 L4.7368,435.803209 L10.5,432.769109 Z" id="Shape" fill="#F7B500" fill-rule="nonzero"></path>
                    <polygon id="Path" fill="#FFCC33" fill-rule="nonzero" points="10.5 398.387689 4.0106 401.807689 5.25 394.567689 0 389.447689 7.2553 388.387689 10.5 381.807689 13.745 388.387689 21 389.447689 15.75 394.567689 16.989 401.807689"></polygon>
                    <path d="M10.5,398.387689 L4.0106,401.804089 L5.25,394.567989 L0,389.443389 L7.2553,388.387689 L10.5,381.804089 L13.7447,388.387689 L21,389.443389 L15.75,394.567989 L16.9894,401.804089 L10.5,398.387689 Z M10.5,397.769109 L16.2632,400.803209 L15.1625,394.376909 L19.825,389.825709 L13.3816,388.888119 L10.5,383.041219 L7.6184,388.888119 L1.175,389.825709 L5.8375,394.376909 L4.7368,400.803209 L10.5,397.769109 Z" id="Shape" fill="#F7B500" fill-rule="nonzero"></path>
                    <path d="M10.5,468.387689 L4.0106,471.804089 L5.25,464.567989 L0,459.443389 L7.2553,458.387689 L10.5,451.804089 L13.7447,458.387689 L21,459.443389 L15.75,464.567989 L16.9894,471.804089 L10.5,468.387689 Z M10.5,467.769109 L16.2632,470.803209 L15.1625,464.376909 L19.825,459.825709 L13.3816,458.888119 L10.5,453.041219 L7.6184,458.888119 L1.175,459.825709 L5.8375,464.376909 L4.7368,470.803209 L10.5,467.769109 Z" id="Shape" fill="#F7B500" fill-rule="nonzero"></path>
                    <polygon id="Path" fill="url(#linearGradient-14)" fill-rule="nonzero" points="7 142.417689 2.6738 144.807689 3.5 139.737689 0 136.157689 4.8369 135.417689 7 130.807689 9.1631 135.417689 14 136.157689 10.5 139.737689 11.326 144.807689"></polygon>
                    <path d="M7,142.417689 L2.6738,144.809189 L3.50004,139.743989 L3.99999999e-05,136.156789 L4.83694,135.417779 L7.00004,130.809279 L9.16314,135.417779 L14.00004,136.156789 L10.50004,139.743989 L11.32628,144.809189 L7.00008,142.417689 L7,142.417689 Z M7,141.984689 L10.8421,144.108589 L10.10832,139.610189 L13.21662,136.424389 L8.92102,135.768079 L6.99992,131.675279 L5.07882,135.768079 L0.78322,136.424389 L3.89152,139.610189 L3.15774,144.108589 L6.99984,141.984689 L7,141.984689 Z" id="Shape" fill="#F7B500" fill-rule="nonzero"></path>
                    <polygon id="Path" fill="#FFCC33" fill-rule="nonzero" points="7 112.417689 2.6738 114.807689 3.5 109.737689 0 106.157689 4.8369 105.417689 7 100.807689 9.1631 105.417689 14 106.157689 10.5 109.737689 11.326 114.807689"></polygon>
                    <path d="M7,112.417689 L2.6738,114.809189 L3.50004,109.743989 L3.99999999e-05,106.156789 L4.83694,105.417779 L7.00004,100.809279 L9.16314,105.417779 L14.00004,106.156789 L10.50004,109.743989 L11.32628,114.809189 L7.00008,112.417689 L7,112.417689 Z M7,111.984689 L10.8421,114.108589 L10.10832,109.610189 L13.21662,106.424389 L8.92102,105.768079 L6.99992,101.675279 L5.07882,105.768079 L0.78322,106.424389 L3.89152,109.610189 L3.15774,114.108589 L6.99984,111.984689 L7,111.984689 Z" id="Shape" fill="#F7B500" fill-rule="nonzero"></path>
                    <path d="M7,177.417689 L2.6738,179.809189 L3.50004,174.743989 L3.99999999e-05,171.156789 L4.83694,170.417779 L7.00004,165.809279 L9.16314,170.417779 L14.00004,171.156789 L10.50004,174.743989 L11.32628,179.809189 L7.00008,177.417689 L7,177.417689 Z M7,176.984689 L10.8421,179.108589 L10.10832,174.610189 L13.21662,171.424389 L8.92102,170.768079 L6.99992,166.675279 L5.07882,170.768079 L0.78322,171.424389 L3.89152,174.610189 L3.15774,179.108589 L6.99984,176.984689 L7,176.984689 Z" id="Shape" fill="#F7B500" fill-rule="nonzero"></path>
                    <g id="c-link" transform="translate(8.741748, 8.741701) rotate(-45.000000) translate(-8.741748, -8.741701) translate(2.313173, 2.807644)" fill="#D8232A" fill-rule="nonzero">
                        <polygon id="c" points="6.92495 1.53e-05 12.85715 5.7856153 6.62055 11.8681153 5.7079 10.9780153 10.394 6.4060153 -2.77555756e-16 6.4061255 -2.77555756e-16 5.1473255 10.377 5.147 6.0123 0.8901 6.92495 2.73429012e-16"></polygon>
                    </g>
                    <g transform="translate(0.000000, 581.807689)">
                        <rect id="Rectangle" fill="#D8D8D8" fill-rule="nonzero" x="0" y="14" width="65" height="40" rx="6"></rect>
                        <path d="M11,0 L55,0 C58.3137,0 61,2.6863 61,6 L61,20.589 L39.715,34 L24.098,34 L5,20.049 L5,6 C5,2.6863 7.6863,0 11,0 Z" id="Path" fill="#2CB700" fill-rule="nonzero"></path>
                        <g transform="translate(0.000000, 14.000000)">
                            <g id="b-link" fill="#D8D8D8" fill-rule="nonzero">
                                <rect id="b" x="0" y="0" width="65" height="40" rx="6"></rect>
                            </g>
                            <g id="Path-Clipped">
                                <mask id="mask-16" fill="white">
                                    <use xlink:href="#path-15"></use>
                                </mask>
                                <g id="path-15"></g>
                                <path d="M11,-14 L55,-14 C58.3137,-14 61,-11.3137 61,-8 L61,6.589 L39.715,20 L24.098,20 L5,6.049 L5,-8 C5,-11.3137 7.6863,-14 11,-14 Z" id="Path" fill="#2CB700" fill-rule="nonzero" mask="url(#mask-16)"></path>
                            </g>
                            <g id="Path-Clipped">
                                <mask id="mask-18" fill="white">
                                    <use xlink:href="#path-17"></use>
                                </mask>
                                <g id="path-17"></g>
                                <path d="M31.601,16.9998 C36.2246,16.9998 46.026,23.4964 61.005,36.489 C61.8394,37.21277 61.92909,38.4759 61.20532,39.3103 C60.82545,39.74824 60.27424,39.9998 59.69452,39.9998 L0.00052,39.9998 C16.04452,24.6668 26.57852,16.9998 31.60152,16.9998 L31.601,16.9998 Z" id="Path" fill="#EAEAEA" fill-rule="nonzero" mask="url(#mask-18)"></path>
                            </g>
                        </g>
                        <path d="M24.707,15.018 C24.31648,14.62748 23.6833,14.62748 23.2928,15.018 C22.9023,15.40852 22.90228,16.0417 23.2928,16.4322 L29.9721,23.1115 L43.3761,9.7075 C43.76662,9.31698 43.76662,8.6838 43.3761,8.2933 C42.98558,7.9028 42.3524,7.90278 41.9619,8.2933 L29.9719,20.2833 L24.7068,15.0182 L24.707,15.018 Z" id="Path" fill="#FFFFFF" fill-rule="nonzero"></path>
                    </g>
                </g>
                <g id="Group" transform="translate(0.800000, 36.600000)" stroke="#009681" stroke-width="1.5">
                    <g transform="translate(0.000000, 0.000000)">
                        <path d="M0,5.60449527 C1.50532757,5.60149842 2.83739014,5.60149842 3.99618771,5.60449527 C5.12150689,5.60149842 6.41981732,3.73333333 7.891119,0 C9.03532763,0.0978531517 9.88356634,1.10474317 9.78571319,2.2489518 C9.77539941,2.36955207 9.75457495,2.48902146 9.72347705,2.60599889 L9.171308,4.68303047 L9.171308,4.68303047 L12.1266259,4.30756144 C13.2213453,4.16847885 14.2215395,4.9431756 14.3606221,6.03789506 C14.3977368,6.3300253 14.3698212,6.62674802 14.2788728,6.90683012 L13.2322908,10.1298551 C12.7651603,11.5684174 11.3546114,12.4834646 9.85057479,12.323632 L3.6,11.6593892 L3.6,11.6593892 L3.6,12.5978393 L0,12.5978393 L0,5.60449527 Z" id="Path-5" stroke-linejoin="round"></path>
                        <line x1="3.60650715" y1="5.6" x2="3.6" y2="11.6" id="Path-7"></line>
                    </g>
                </g>
                <g id="Group" transform="translate(28.800000, 36.600000)" stroke="#AB7C00" stroke-width="1.5">
                    <g transform="translate(0.000000, 0.000000)">
                        <path d="M0,5.60449527 C1.50532757,5.60149842 2.83739014,5.60149842 3.99618771,5.60449527 C5.12150689,5.60149842 6.41981732,3.73333333 7.891119,0 C9.03532763,0.0978531517 9.88356634,1.10474317 9.78571319,2.2489518 C9.77539941,2.36955207 9.75457495,2.48902146 9.72347705,2.60599889 L9.171308,4.68303047 L9.171308,4.68303047 L12.1266259,4.30756144 C13.2213453,4.16847885 14.2215395,4.9431756 14.3606221,6.03789506 C14.3977368,6.3300253 14.3698212,6.62674802 14.2788728,6.90683012 L13.2322908,10.1298551 C12.7651603,11.5684174 11.3546114,12.4834646 9.85057479,12.323632 L3.6,11.6593892 L3.6,11.6593892 L3.6,12.5978393 L0,12.5978393 L0,5.60449527 Z" id="Path-5" stroke-linejoin="round"></path>
                        <line x1="3.60650715" y1="5.6" x2="3.6" y2="11.6" id="Path-7"></line>
                    </g>
                </g>
                <g id="Group" transform="translate(0.798160, 70.600001)" stroke="#909090" stroke-width="1.5">
                    <g id="icon/24/wallet" transform="translate(7.188278, 6.298920) scale(-1, 1) translate(-7.188278, -6.298920) ">
                        <g id="Group" transform="translate(7.188278, 6.298920) rotate(180.000000) translate(-7.188278, -6.298920) translate(0.000000, 0.000000)">
                            <path d="M0,5.60449527 C1.50532757,5.60149842 2.83739014,5.60149842 3.99618771,5.60449527 C5.12150689,5.60149842 6.41981715,3.73333333 7.89111848,0 C9.03532711,0.0978531517 9.88356582,1.10474317 9.78571267,2.2489518 C9.77539889,2.36955207 9.75457443,2.48902146 9.72347653,2.60599889 L9.17130748,4.68303047 L9.17130748,4.68303047 L12.1266264,4.30756137 C13.2213459,4.1684788 14.22154,4.94317557 14.3606226,6.03789503 C14.3977373,6.33002526 14.3698217,6.62674797 14.2788733,6.90683005 L13.2322913,10.1298551 C12.7651608,11.5684174 11.3546118,12.4834646 9.85057528,12.323632 L3.6,11.6593892 L3.6,11.6593892 L3.6,12.5978393 L0,12.5978393 L0,5.60449527 Z" id="Path-5" stroke-linejoin="round"></path>
                            <line x1="3.60650715" y1="5.6" x2="3.6" y2="11.6" id="Path-7"></line>
                        </g>
                    </g>
                </g>
                <g id="Group-34" transform="translate(0.000000, 878.000000)" fill-rule="nonzero">
                    <circle id="Oval" fill="#FFFFFF" cx="16" cy="16" r="16"></circle>
                    <path d="M12,19.9519602 L12,11.0578735 C12,10.4108843 12.5244883,9.88639603 13.1714774,9.88639603 C13.3819508,9.88639603 13.5885369,9.94310002 13.7695181,10.0505469 L21.2952838,14.5185262 C21.8516149,14.8488149 22.0348584,15.5675623 21.7045697,16.1238934 C21.6036883,16.2938157 21.4614616,16.4354571 21.2911247,16.5356369 L13.765359,20.9617444 C13.2076706,21.2897361 12.489685,21.1035301 12.1616933,20.5458417 C12.0558246,20.365832 12,20.1607942 12,19.9519602 Z" id="Path" fill="#D8232A"></path>
                </g>
                <g id="Group" transform="translate(5.113018, 1013.220477)">
                    <g transform="translate(-0.000000, -0.000000)">
                        <polygon id="Path-7" stroke="#303030" points="-3.55271368e-15 29.7795227 30 29.7795227 30 16.2189886 22.5 11.2189886 15 17.2189886 7.50000001 14.2189886 -3.55271368e-15 20.2189886"></polygon>
                        <polyline id="Path" stroke="#D8232A" points="21.1560689 0 25.8869818 0 25.8869818 4.5 25.8869818 0 15 9.21898856 7.50000001 6.21898856 -3.55271368e-15 12.2189886"></polyline>
                        <line x1="7.34369631" y1="14.2795227" x2="7.34369631" y2="29.7795227" id="Path-9" stroke="#303030"></line>
                        <line x1="15.3869818" y1="17.2795227" x2="15.3436963" y2="29.7795227" id="Path-9-Copy" stroke="#303030"></line>
                        <line x1="22.3869818" y1="12.2795227" x2="22.3436963" y2="29.7795227" id="Path-9-Copy-2" stroke="#303030"></line>
                    </g>
                </g>
                <g id="Group-3" transform="translate(8.000000, 1056.000000)">
                    <rect id="Rectangle" stroke="#303030" stroke-width="2" stroke-linecap="round" stroke-linejoin="round" x="0" y="0" width="24" height="32" rx="3.2"></rect>
                    <rect id="Rectangle" fill="#D8232A" fill-rule="nonzero" x="4" y="4.8" width="16" height="4" rx="0.8"></rect>
                    <rect id="Rectangle-Copy" stroke="#303030" stroke-width="1.2" x="4.6" y="12.6" width="2.8" height="2.8" rx="0.8"></rect>
                    <rect id="Rectangle-Copy-2" stroke="#303030" stroke-width="1.2" x="10.2" y="12.6" width="2.8" height="2.8" rx="0.8"></rect>
                    <rect id="Rectangle-Copy-2" stroke="#303030" stroke-width="1.2" x="15.8" y="12.6" width="2.8" height="2.8" rx="0.8"></rect>
                    <rect id="Rectangle-Copy" stroke="#303030" stroke-width="1.2" x="4.6" y="18.2" width="2.8" height="2.8" rx="0.8"></rect>
                    <rect id="Rectangle-Copy-2" stroke="#303030" stroke-width="1.2" x="10.2" y="18.2" width="2.8" height="2.8" rx="0.8"></rect>
                    <rect id="Rectangle-Copy" stroke="#303030" stroke-width="1.2" x="4.6" y="23.8" width="2.8" height="2.8" rx="0.8"></rect>
                    <rect id="Rectangle-Copy-2" stroke="#303030" stroke-width="1.2" x="10.2" y="23.8" width="2.8" height="2.8" rx="0.8"></rect>
                    <rect id="Rectangle-Copy-2" stroke="#303030" stroke-width="1.2" x="15.8" y="18.2" width="2.8" height="8.4" rx="0.8"></rect>
                </g>
                <g id="Group" transform="translate(3.000000, 924.000000)">
                    <polygon id="Path-26" stroke="#303030" stroke-width="2" stroke-linecap="round" stroke-linejoin="round" points="0 14 15 0 30 14 26.25 14 26.25 32 15 32 3.75 32 3.75 14"></polygon>
                    <polyline id="Shape" stroke="#303030" stroke-width="2" stroke-linecap="round" stroke-linejoin="round" transform="translate(5.788601, 6.409039) scale(-1, 1) translate(-5.788601, -6.409039) " points="3.7349009 6.5069621 3.7349009 2.81807817 7.842302 2.81807817 7.842302 9.9999998"></polyline>
                    <polyline id="Path" stroke="#303030" stroke-width="2" stroke-linecap="round" stroke-linejoin="round" points="11 31 11 20 19 20 19 31"></polyline>
                    <g transform="translate(14.300000, 5.700000)" fill-rule="nonzero">
                        <circle id="Oval" stroke="#303030" stroke-width="2" fill="#FFFFFF" stroke-linecap="round" stroke-linejoin="round" cx="9.04347826" cy="9.04347826" r="9.04347826"></circle>
                        <line x1="15.5452149" y1="15.8819186" x2="19.5053499" y2="19.8420537" id="Path-27" stroke="#303030" stroke-width="2" fill="#FFFFFF" stroke-linecap="round" stroke-linejoin="round"></line>
                        <path d="M11.7442555,6.15993366 C12.1558211,6.15993363 12.489461,5.82629378 12.489461,5.41472818 C12.489461,5.00316257 12.1558211,4.6695227 11.7442555,4.6695227 L6.32661167,4.6695227 C5.91504605,4.6695227 5.5814062,5.00316256 5.5814062,5.41472818 C5.5814062,5.8262938 5.91504605,6.15993366 6.32661167,6.15993366 L7.87676327,6.15993366 C8.46456799,6.1741062 8.99799068,6.50731688 9.26855871,7.02934005 L6.32661167,7.02934005 C5.91504605,7.02934005 5.5814062,7.36297991 5.5814062,7.77454553 C5.5814062,8.18611115 5.91504605,8.51975101 6.32661167,8.51975101 L9.26855871,8.51975101 C9.00189935,9.01655466 8.4782683,9.26495649 7.87676327,9.26495649 L6.32661167,9.26495649 C6.01901475,9.27320599 5.74632565,9.46501783 5.63459806,9.75172477 C5.52287046,10.0384317 5.59387134,10.364177 5.81477971,10.5783811 L9.6898482,14.2444195 C9.88100698,14.4364272 10.1614475,14.509309 10.4219037,14.4346686 C10.6823599,14.3600282 10.8816314,14.1496726 10.9420776,13.8855611 C11.0025237,13.6214496 10.9145828,13.3453608 10.7125185,13.1648652 L8.18341533,10.8018186 C9.46737264,10.6838786 10.5376165,9.76954095 10.8546044,8.51975101 L11.7442555,8.51975101 C12.1558211,8.51975101 12.489461,8.18611115 12.489461,7.77454553 C12.489461,7.36297991 12.1558211,7.02934005 11.7442555,7.02934005 L10.8546044,7.02934005 C10.796217,6.71989128 10.6785054,6.42466324 10.5079596,6.15993366 L11.7442555,6.15993366 Z" id="Path" fill="#D8232A"></path>
                    </g>
                </g>
                <g id="Group" transform="translate(3.000000, 968.000000)">
                    <path d="M13.2499994,28.8499988 C15.7746197,27.9421245 17.3906524,26.6465621 18.0980976,24.9633115 C19.1592654,22.4384356 18.6363751,19.4404031 15.3979175,20.6763256 C13.560164,21.3776844 13.9388944,23.4561686 16.5341088,26.9117781 L16.5341301,26.9117621 C17.6296491,28.3704802 19.7002674,28.6649112 21.1589854,27.5693921 C21.4082202,27.3822131 21.6297071,27.1606993 21.8168559,26.9114419 C21.8168559,26.9114419 21.8168559,26.9114419 21.8168559,26.9114419 C23.5135703,24.6516427 26.5875843,24.0063106 28.923922,28.2375124" id="Path-8" stroke="#D8232A"></path>
                    <path d="M5,0 L24,0 C28.418278,0 32,3.581722 32,8 L32,32 L10,32 L10,7.88330232" id="Path" stroke="#303030"></path>
                    <path d="M5,0 C7.76142375,0 10,2.23857625 10,5 L10,8 L10,8 L0,8 L0,5 C0,2.23857625 2.23857625,0 5,0 Z" id="Rectangle-Copy" stroke="#303030"></path>
                    <path d="M14.0385677,6.22290512 L27.0385677,6.22290512 M14.0385677,10.2229051 L22.0385677,10.2229051 M14.0385677,14.2229051 L27.0385677,14.2229051" id="Combined-Shape" stroke="#303030"></path>
                </g>
                <g id="Group" transform="translate(1.500000, 1128.500000)">
                    <circle id="Oval" stroke="#303030" cx="8.5" cy="8.5" r="8.5"></circle>
                    <path d="M5.5,11.2389988 L5.5,5.76632225 C5.5,5.33499618 5.84965887,4.9853373 6.28098495,4.9853373 C6.40272547,4.9853373 6.5227802,5.01379763 6.63156561,5.06844641 L12.1042421,7.81766685 C12.4896683,8.0112872 12.6451577,8.48069717 12.4515373,8.86612335 C12.3756817,9.01712375 12.2528963,9.13944757 12.1016113,9.21473396 L6.62893475,11.93819 C6.24278208,12.1303574 5.77396105,11.9731012 5.58179368,11.5869486 C5.52799775,11.4788478 5.5,11.3597455 5.5,11.2389988 Z" id="Path" fill="#D8232A" fill-rule="nonzero"></path>
                </g>
                <g id="Group" transform="translate(3.000000, 1100.000000)">
                    <path d="M2,0 L10.1467272,0 L10.1467272,0 L14,4 L14,16 C14,17.1045695 13.1045695,18 12,18 L2,18 C0.8954305,18 0,17.1045695 0,16 L0,2 C0,0.8954305 0.8954305,0 2,0 Z" id="Rectangle" stroke="#303030" stroke-linecap="round" stroke-linejoin="round"></path>
                    <polyline id="Path-2" stroke="#303030" points="10 0 10 4 14 4"></polyline>
                    <line x1="2.91823887" y1="5.18399853" x2="6" y2="5.18399853" id="Path-3" stroke="#D8232A" stroke-linecap="round" stroke-linejoin="round"></line>
                    <line x1="2.91823887" y1="8.18399853" x2="11" y2="8.18399853" id="Path-3-Copy" stroke="#D8232A" stroke-linecap="round" stroke-linejoin="round"></line>
                    <line x1="2.91823887" y1="11.1839985" x2="11" y2="11.1839985" id="Path-3-Copy-2" stroke="#D8232A" stroke-linecap="round" stroke-linejoin="round"></line>
                    <line x1="2.91823887" y1="14.1839985" x2="8" y2="14.1839985" id="Path-3-Copy-3" stroke="#D8232A" stroke-linecap="round" stroke-linejoin="round"></line>
                </g>
                <g id="The_times_of_india" transform="translate(0.000000, 1155.000000)" fill="#000000" fill-rule="nonzero">
                    <path d="M6.35979471,10.5201915 C6.35979471,11.6460385 8.02131882,11.1083205 8.02131882,11.5284127 C8.02131882,11.7300569 7.85354277,11.7642063 7.58510109,11.7642063 C6.79655365,11.7642063 6.35979471,11.7300569 5.35313841,11.7300569 C4.34648212,11.7300569 3.91026439,11.7642063 3.12117574,11.7642063 C2.85273406,11.7642063 2.68495801,11.7300569 2.68495801,11.5284127 C2.68495801,11.1083205 4.3459409,11.6460385 4.3459409,10.5201915 L4.32970451,0.738820128 C2.63516641,0.738820128 1.17497356,2.23434818 0.520105754,3.5959888 C0.3355521,3.98247357 0.251664075,4.20092149 0.150998445,4.20092149 C0.03355521,4.20092149 0,4.13370675 0,4.066492 C0,3.86484777 0.10066563,3.46155931 0.16777605,3.14228928 L0.704659409,0.385942723 C0.721437014,0.284578553 0.738214619,0.0666726895 0.889213064,0.0666726895 C0.989878694,0.0666726895 1.0234339,0.133887433 1.10732193,0.201102177 C1.20852877,0.268316921 1.35952722,0.335531665 1.71185692,0.335531665 L8.9776423,0.335531665 C9.32997201,0.335531665 9.48151166,0.268316921 9.58163608,0.201102177 C9.66552411,0.133887433 9.69907932,0.0666726895 9.79974495,0.0666726895 C9.95074339,0.0666726895 9.967521,0.285120607 9.9842986,0.385942723 L10.521182,3.14228928 C10.5882924,3.46155931 10.6894992,3.86484777 10.6894992,4.066492 C10.6894992,4.13370675 10.6554028,4.20092149 10.5385008,4.20092149 C10.4378351,4.20092149 10.3539471,3.98247357 10.1693935,3.5959888 C9.51506687,2.23434818 8.05487403,0.738820128 6.35979471,0.738820128 L6.35979471,10.5201915 Z" id="Path"></path>
                    <path d="M15.0332753,5.91543952 L15.0332753,10.5207336 C15.0332753,11.6465805 16.4258165,11.1088626 16.4258165,11.5289547 C16.4258165,11.730599 16.3251509,11.7647484 16.0567092,11.7647484 C15.469493,11.7647484 15.0332753,11.730599 14.026619,11.730599 C13.0199627,11.730599 12.5832037,11.7647484 11.9959876,11.7647484 C11.7275459,11.7647484 11.6268802,11.730599 11.6268802,11.5289547 C11.6268802,11.1088626 13.0199627,11.6465805 13.0199627,10.5207336 L13.0199627,1.54539705 C13.0199627,0.41900804 11.6268802,0.957268046 11.6268802,0.537175897 C11.6268802,0.335531665 11.7275459,0.301924293 11.9959876,0.301924293 C12.5832037,0.301924293 13.0199627,0.335531665 14.026619,0.335531665 C15.0332753,0.335531665 15.469493,0.301924293 16.0567092,0.301924293 C16.3251509,0.301924293 16.4258165,0.335531665 16.4258165,0.537175897 C16.4258165,0.957268046 15.0332753,0.419550095 15.0332753,1.54539705 L15.0332753,5.511609 L19.8825443,5.511609 L19.8825443,1.54539705 C19.8825443,0.41900804 18.4894619,0.957268046 18.4894619,0.537175897 C18.4894619,0.335531665 18.5906687,0.301924293 18.8591104,0.301924293 C19.4463266,0.301924293 19.8825443,0.335531665 20.8892006,0.335531665 C21.8958569,0.335531665 22.3326159,0.301924293 22.9192908,0.301924293 C23.1877325,0.301924293 23.2889393,0.335531665 23.2889393,0.537175897 C23.2889393,0.957268046 21.8958569,0.419550095 21.8958569,1.54539705 L21.8958569,10.5201915 C21.8958569,11.6460385 23.2889393,11.1083205 23.2889393,11.5284127 C23.2889393,11.7300569 23.1877325,11.7642063 22.9192908,11.7642063 C22.3320747,11.7642063 21.8958569,11.7300569 20.8892006,11.7300569 C19.8825443,11.7300569 19.4457854,11.7642063 18.8591104,11.7642063 C18.5906687,11.7642063 18.4894619,11.7300569 18.4894619,11.5284127 C18.4894619,11.1083205 19.8825443,11.6460385 19.8825443,10.5201915 L19.8825443,5.91489746 L15.0332753,5.91489746 L15.0332753,5.91543952 Z" id="Path"></path>
                    <path d="M25.8039565,1.54539705 C25.8039565,0.41900804 24.410874,0.957268046 24.410874,0.537175897 C24.410874,0.335531665 24.5120809,0.301924293 24.7805226,0.301924293 C25.3677387,0.301924293 25.8039565,0.335531665 26.8106128,0.335531665 C30.5190047,0.335531665 31.7610886,0.301924293 32.9690762,0.301924293 L33.7744012,3.44475562 C33.8247341,3.66320354 33.8750669,3.79763303 33.8750669,3.88219351 C33.8750669,3.99981932 33.8415117,4.05023037 33.740846,4.05023037 C33.5395148,4.05023037 33.5898476,3.63013822 32.7677449,2.45388021 C31.7437698,0.991959527 30.3176734,0.705754811 28.3205972,0.705754811 L27.8172691,0.705754811 L27.8172691,5.64712259 L28.1863764,5.64712259 C29.6297916,5.64712259 30.7203359,5.07579727 30.7203359,3.37808293 C30.7203359,3.12602764 30.804224,3.0588129 30.9216672,3.0588129 C31.055888,3.0588129 31.1229984,3.12602764 31.1229984,3.37808293 L31.1229984,8.40346915 C31.1229984,8.65552444 31.055888,8.7059355 30.9216672,8.7059355 C30.804224,8.7059355 30.7203359,8.65552444 30.7203359,8.40346915 C30.7203359,6.63854007 29.6297916,6.05041106 28.1863764,6.05041106 L27.8172691,6.05041106 L27.8172691,10.4204535 C27.8172691,11.0589936 28.2199316,11.3614599 29.2265879,11.3614599 C32.330986,11.3614599 33.656958,9.31086819 34.1429673,7.64676123 C34.2268554,7.39416388 34.2771882,7.31068751 34.3946314,7.31068751 C34.5120747,7.31068751 34.5456299,7.39416388 34.5456299,7.47872437 C34.5456299,7.58008854 34.5456299,7.73132171 34.495297,7.96603126 L33.7906376,11.7647484 C32.3975552,11.7647484 30.9714588,11.730599 26.8100715,11.730599 C25.8034152,11.730599 25.3666563,11.7647484 24.7799813,11.7647484 C24.5115397,11.7647484 24.4103328,11.730599 24.4103328,11.5289547 C24.4103328,11.1088626 25.8034152,11.6465805 25.8034152,10.5207336 L25.8034152,1.54539705 L25.8039565,1.54539705 Z" id="Path"></path>
                    <path d="M46.5919502,10.5201915 C46.5919502,11.6460385 48.2534743,11.1083205 48.2534743,11.5284127 C48.2534743,11.7300569 48.0856983,11.7642063 47.8172566,11.7642063 C47.0287092,11.7642063 46.5919502,11.7300569 45.5852939,11.7300569 C44.5786376,11.7300569 44.1424199,11.7642063 43.3533313,11.7642063 C43.0848896,11.7642063 42.9171135,11.7300569 42.9171135,11.5284127 C42.9171135,11.1083205 44.5780964,11.6460385 44.5780964,10.5201915 L44.56186,0.738820128 C42.8673219,0.738820128 41.4071291,2.23434818 40.7522613,3.5959888 C40.5677076,3.98247357 40.4838196,4.20092149 40.383154,4.20092149 C40.2657107,4.20092149 40.2321555,4.13370675 40.2321555,4.066492 C40.2321555,3.86484777 40.3328212,3.46155931 40.3999316,3.14228928 L40.9368149,0.385942723 C40.9535925,0.284578553 40.9703701,0.0666726895 41.1213686,0.0666726895 C41.2220342,0.0666726895 41.2555894,0.133887433 41.3394774,0.201102177 C41.4401431,0.268316921 41.5911415,0.335531665 41.9434712,0.335531665 L49.2092566,0.335531665 C49.5615863,0.335531665 49.713126,0.268316921 49.8132504,0.201102177 C49.8971384,0.133887433 49.9306936,0.0666726895 50.0313593,0.0666726895 C50.1823577,0.0666726895 50.1991353,0.285120607 50.2159129,0.385942723 L50.7527963,3.14228928 C50.8199067,3.46155931 50.9211135,3.86484777 50.9211135,4.066492 C50.9211135,4.13370675 50.8870171,4.20092149 50.7701151,4.20092149 C50.6694495,4.20092149 50.5855614,3.98247357 50.4010078,3.5959888 C49.7466812,2.23434818 48.2864883,0.738820128 46.591409,0.738820128 L46.591409,10.5201915 L46.5919502,10.5201915 Z" id="Path"></path>
                    <path d="M53.419353,1.54539705 C53.419353,0.41900804 52.0268118,0.957268046 52.0268118,0.537175897 C52.0268118,0.335531665 52.1274774,0.301924293 52.3959191,0.301924293 C52.9831353,0.301924293 53.419353,0.335531665 54.4260093,0.335531665 C55.4326656,0.335531665 55.8694246,0.301924293 56.4566407,0.301924293 C56.7250824,0.301924293 56.8257481,0.335531665 56.8257481,0.537175897 C56.8257481,0.957268046 55.4326656,0.419550095 55.4326656,1.54539705 L55.4326656,10.5201915 C55.4326656,11.6460385 56.8257481,11.1083205 56.8257481,11.5284127 C56.8257481,11.7300569 56.7250824,11.7642063 56.4566407,11.7642063 C55.8694246,11.7642063 55.4326656,11.7300569 54.4260093,11.7300569 C53.419353,11.7300569 52.9831353,11.7642063 52.3959191,11.7642063 C52.1274774,11.7642063 52.0268118,11.7300569 52.0268118,11.5284127 C52.0268118,11.1083205 53.419353,11.6460385 53.419353,10.5201915 L53.419353,1.54539705 Z" id="Path"></path>
                    <path d="M64.8795397,8.92384136 L68.4872659,0.335531665 L69.259577,0.335531665 C70.2662333,0.335531665 70.702451,0.301924293 71.2896672,0.301924293 C71.5581089,0.301924293 71.6587745,0.335531665 71.6587745,0.537175897 C71.6587745,0.957268046 70.2662333,0.419550095 70.2662333,1.54539705 L70.2662333,10.5201915 C70.2662333,11.6460385 71.6587745,11.1083205 71.6587745,11.5284127 C71.6587745,11.7300569 71.5581089,11.7642063 71.2896672,11.7642063 C70.702451,11.7642063 70.2662333,11.7300569 69.259577,11.7300569 C68.2529207,11.7300569 67.8161617,11.7642063 67.2289456,11.7642063 C66.9605039,11.7642063 66.8598383,11.7300569 66.8598383,11.5284127 C66.8598383,11.1083205 68.2529207,11.6460385 68.2529207,10.5201915 L68.2529207,1.78064866 L68.2188243,1.78064866 L64.3091011,11.3771795 C64.2419907,11.5284127 64.1748802,11.7300569 64.057437,11.7300569 C63.973549,11.7300569 63.9064386,11.561478 63.8393281,11.3771795 L60.013493,1.91507815 L59.9799378,1.91507815 L59.9799378,8.95690668 C59.9799378,10.385762 60.4664883,11.0747132 61.1040373,11.2763574 C61.5407963,11.4107869 61.7421275,11.3435721 61.7421275,11.5788237 C61.7421275,11.7300569 61.6409207,11.7642063 61.372479,11.7642063 C60.9027061,11.7642063 60.4497107,11.7300569 59.7786065,11.7300569 C58.738395,11.7300569 58.3016361,11.7642063 57.9996392,11.7642063 C57.7647527,11.7642063 57.6137543,11.7474027 57.6137543,11.5956274 C57.6137543,11.3267685 57.7983079,11.4107869 58.2345257,11.2763574 C59.4257356,10.9402837 59.5767341,9.62905412 59.5767341,7.59580811 L59.5767341,1.91507815 C59.5767341,0.41900804 57.8486407,0.956725992 57.8486407,0.537175897 C57.8486407,0.335531665 57.9493064,0.301924293 58.2177481,0.301924293 C58.8049642,0.301924293 59.2417232,0.335531665 60.2483795,0.335531665 L61.3221462,0.335531665 L64.8795397,8.92384136 Z" id="Path"></path>
                    <path d="M74.10614,1.54539705 C74.10614,0.41900804 72.7130575,0.957268046 72.7130575,0.537175897 C72.7130575,0.335531665 72.8142644,0.301924293 73.0827061,0.301924293 C73.6699222,0.301924293 74.10614,0.335531665 75.1127963,0.335531665 C78.8211882,0.335531665 80.0632722,0.301924293 81.2712597,0.301924293 L82.0765848,3.44475562 C82.1269176,3.66320354 82.1772504,3.79763303 82.1772504,3.88219351 C82.1772504,3.99981932 82.1436952,4.05023037 82.0430295,4.05023037 C81.8416983,4.05023037 81.8920311,3.63013822 81.0699285,2.45388021 C80.0459533,0.991959527 78.6198569,0.705754811 76.6227807,0.705754811 L76.1194526,0.705754811 L76.1194526,5.64712259 L76.4885599,5.64712259 C77.9319751,5.64712259 79.0225194,5.07579727 79.0225194,3.37808293 C79.0225194,3.12602764 79.1064075,3.0588129 79.2238507,3.0588129 C79.3580715,3.0588129 79.425182,3.12602764 79.425182,3.37808293 L79.425182,8.40346915 C79.425182,8.65552444 79.3580715,8.7059355 79.2238507,8.7059355 C79.1064075,8.7059355 79.0225194,8.65552444 79.0225194,8.40346915 C79.0225194,6.63854007 77.9319751,6.05041106 76.4885599,6.05041106 L76.1194526,6.05041106 L76.1194526,10.4204535 C76.1194526,11.0589936 76.5221151,11.3614599 77.5287714,11.3614599 C80.6331695,11.3614599 81.9591415,9.31086819 82.4451509,7.64676123 C82.5290389,7.39416388 82.5793717,7.31068751 82.6968149,7.31068751 C82.8142582,7.31068751 82.8478134,7.39416388 82.8478134,7.47872437 C82.8478134,7.58008854 82.8478134,7.73132171 82.7974806,7.96603126 L82.0928212,11.7647484 C80.6997387,11.7647484 79.2736423,11.730599 75.1122551,11.730599 C74.1055988,11.730599 73.6688398,11.7647484 73.0821649,11.7647484 C72.8137232,11.7647484 72.7125163,11.730599 72.7125163,11.5289547 C72.7125163,11.1088626 74.1055988,11.6465805 74.1055988,10.5207336 L74.1055988,1.54539705 L74.10614,1.54539705 Z" id="Path"></path>
                    <path d="M84.3237014,7.10850122 C84.3237014,6.95726805 84.4075894,6.90685699 84.4914774,6.90685699 C84.6424759,6.90685699 84.6760311,7.04128648 84.7263639,7.41096757 C85.0115832,9.478363 85.9007963,11.5961695 88.1159813,11.5961695 C89.7948243,11.5961695 90.5492753,10.5879483 90.5492753,9.44475562 C90.5492753,6.049869 84.3237014,7.42777125 84.3237014,3.29352245 C84.3237014,1.54539705 85.9348927,0.0666726895 87.8475397,0.0666726895 C89.3412877,0.0666726895 89.9117263,0.738820128 90.5660529,0.738820128 C91.0526034,0.738820128 90.8344946,0.201102177 91.1532691,0.201102177 C91.2712535,0.201102177 91.3042675,0.268316921 91.3215863,0.453157467 C91.5396952,2.80621556 91.6062644,3.96566989 91.6062644,4.18411781 C91.6062644,4.35269672 91.5229176,4.41991146 91.4217107,4.41991146 C91.2874899,4.41991146 91.2539347,4.20146355 91.2036019,4.016623 C90.6331633,2.10046075 89.7266314,0.470503207 87.8313033,0.470503207 C86.5562053,0.470503207 85.8006719,1.22666908 85.8006719,2.28584335 C85.8006719,5.37826362 92.0262457,4.33643509 92.0262457,8.42027283 C92.0262457,10.2020056 90.7511477,12 88.0158569,12 C86.7905505,12 85.666451,11.3614599 85.2302333,11.3614599 C84.5423515,11.3614599 84.7940156,11.9327853 84.4752411,11.9327853 C84.4081306,11.9327853 84.3242426,11.8991779 84.3242426,11.731141 L84.3242426,7.10850122 L84.3237014,7.10850122 Z" id="Path"></path>
                    <path d="M110.162837,6.03306532 C110.162837,9.79763303 106.974551,11.9994579 104.138594,11.9994579 C101.302638,11.9994579 98.1143515,9.79763303 98.1143515,6.03306532 C98.1143515,2.26849761 101.302638,0.0666726895 104.138594,0.0666726895 C106.974551,0.0666726895 110.162837,2.26849761 110.162837,6.03306532 Z M104.138594,0.469961153 C101.940187,0.469961153 100.329537,2.23434818 100.329537,6.03306532 C100.329537,9.8312404 101.940728,11.5961695 104.138594,11.5961695 C106.33646,11.5961695 107.947652,9.8312404 107.947652,6.03306532 C107.947652,2.23434818 106.337002,0.469961153 104.138594,0.469961153 Z" id="Shape"></path>
                    <path d="M112.794215,1.54539705 C112.794215,0.41900804 111.401673,0.957268046 111.401673,0.537175897 C111.401673,0.335531665 111.50288,0.301924293 111.771322,0.301924293 C112.358538,0.301924293 112.794756,0.335531665 113.801953,0.335531665 C117.510345,0.335531665 118.751888,0.301924293 119.826196,0.301924293 L120.631521,3.44475562 C120.681854,3.66320354 120.732187,3.79763303 120.732187,3.88219351 C120.732187,3.99981932 120.698631,4.05023037 120.597966,4.05023037 C120.396635,4.05023037 120.446967,3.63013822 119.624865,2.45388021 C118.60089,0.991959527 117.174793,0.705754811 115.177717,0.705754811 L114.808068,0.705754811 L114.808068,5.64712259 L115.177717,5.64712259 C116.621132,5.64712259 117.711677,5.07579727 117.711677,3.37808293 C117.711677,3.12602764 117.795565,3.0588129 117.913008,3.0588129 C118.047229,3.0588129 118.114339,3.12602764 118.114339,3.37808293 L118.114339,8.40346915 C118.114339,8.65552444 118.047229,8.7059355 117.913008,8.7059355 C117.795565,8.7059355 117.711677,8.65552444 117.711677,8.40346915 C117.711677,6.63854007 116.621132,6.05041106 115.177717,6.05041106 L114.808068,6.05041106 L114.808068,10.5212756 C114.808068,11.6471226 116.201151,11.1094046 116.201151,11.5294968 C116.201151,11.731141 116.099944,11.7652905 115.831502,11.7652905 C115.244286,11.7652905 114.807527,11.731141 113.801412,11.731141 C112.794215,11.731141 112.357997,11.7652905 111.770781,11.7652905 C111.502339,11.7652905 111.401132,11.731141 111.401132,11.5294968 C111.401132,11.1094046 112.793673,11.6471226 112.793673,10.5212756 L112.793673,1.54539705 L112.794215,1.54539705 Z" id="Path"></path>
                    <path d="M127.978488,1.54539705 C127.978488,0.41900804 126.585947,0.957268046 126.585947,0.537175897 C126.585947,0.335531665 126.686613,0.301924293 126.955054,0.301924293 C127.542271,0.301924293 127.97903,0.335531665 128.985686,0.335531665 C129.992342,0.335531665 130.42856,0.301924293 131.016317,0.301924293 C131.284759,0.301924293 131.385425,0.335531665 131.385425,0.537175897 C131.385425,0.957268046 129.992883,0.419550095 129.992883,1.54539705 L129.992883,10.5201915 C129.992883,11.6460385 131.385425,11.1083205 131.385425,11.5284127 C131.385425,11.7300569 131.284759,11.7642063 131.016317,11.7642063 C130.42856,11.7642063 129.992342,11.7300569 128.985686,11.7300569 C127.97903,11.7300569 127.542271,11.7642063 126.955054,11.7642063 C126.686613,11.7642063 126.585947,11.7300569 126.585947,11.5284127 C126.585947,11.1083205 127.978488,11.6460385 127.978488,10.5201915 L127.978488,1.54539705 Z" id="Path"></path>
                    <path d="M141.602986,3.10813985 C141.602986,1.67982654 140.982215,0.990875418 140.344666,0.789231186 C139.907907,0.654801698 139.707117,0.722016442 139.707117,0.486222784 C139.707117,0.334989611 139.807782,0.301382239 140.076224,0.301382239 C140.680218,0.301382239 141.133213,0.334989611 141.838414,0.334989611 C142.543073,0.334989611 142.996068,0.301382239 143.600603,0.301382239 C143.869045,0.301382239 143.969711,0.334989611 143.969711,0.486222784 C143.969711,0.722016442 143.768379,0.654801698 143.332162,0.789231186 C142.694072,0.990875418 142.0733,1.67982654 142.0733,3.10813985 L142.0733,11.7642063 C142.0733,11.8818321 142.00619,11.9994579 141.871969,11.9994579 C141.754526,11.9994579 141.620305,11.9490469 141.536417,11.830879 L134.420547,2.35197398 L134.386992,2.35197398 L134.386992,8.95690668 C134.386992,10.385762 135.007764,11.0747132 135.645313,11.2763574 C136.082072,11.4107869 136.282862,11.3435721 136.282862,11.5788237 C136.282862,11.7300569 136.182196,11.7642063 135.913754,11.7642063 C135.30976,11.7642063 134.856765,11.7300569 134.151565,11.7300569 C133.446905,11.7300569 132.99391,11.7642063 132.389375,11.7642063 C132.120933,11.7642063 132.020267,11.7300569 132.020267,11.5788237 C132.020267,11.3435721 132.221599,11.4107869 132.657816,11.2763574 C133.295907,11.0747132 133.916678,10.38522 133.916678,8.95690668 L133.916678,1.76384497 C132.943036,0.369139037 132.037045,0.85644593 132.037045,0.537175897 C132.037045,0.352335351 132.154488,0.301924293 132.406152,0.301924293 C132.808815,0.301924293 133.144367,0.335531665 133.68125,0.335531665 L135.242109,0.335531665 L141.568348,8.83982293 L141.601904,8.83982293 L141.601904,3.10813985 L141.602986,3.10813985 Z" id="Path"></path>
                    <path d="M145.880193,1.54539705 C145.880193,0.41900804 144.48711,0.957268046 144.48711,0.537175897 C144.48711,0.335531665 144.588317,0.301924293 144.856759,0.301924293 C145.443975,0.301924293 145.880734,0.335531665 146.886849,0.335531665 C147.574731,0.335531665 148.347042,0.301924293 149.26981,0.301924293 C153.247185,0.301924293 155.680479,2.6381787 155.680479,6.08347638 C155.680479,9.22630771 153.750513,11.7642063 149.97447,11.7642063 C148.85037,11.7642063 147.877269,11.7300569 146.886849,11.7300569 C145.880734,11.7300569 145.443975,11.7642063 144.856759,11.7642063 C144.588317,11.7642063 144.48711,11.7300569 144.48711,11.5284127 C144.48711,11.1083205 145.880193,11.6460385 145.880193,10.5201915 L145.880193,1.54539705 L145.880193,1.54539705 Z M147.894047,9.84804409 C147.894047,10.92348 148.514277,11.3609179 149.722806,11.3609179 C151.635994,11.3609179 153.464753,10.4865842 153.464753,6.20056012 C153.464753,2.99051405 152.190196,0.704670702 149.62214,0.704670702 L147.894047,0.704670702 L147.894047,9.84804409 Z" id="Shape"></path>
                    <path d="M158.429841,1.54539705 C158.429841,0.41900804 157.036759,0.957268046 157.036759,0.537175897 C157.036759,0.335531665 157.137966,0.301924293 157.406407,0.301924293 C157.993624,0.301924293 158.430383,0.335531665 159.437039,0.335531665 C160.443695,0.335531665 160.879913,0.301924293 161.467129,0.301924293 C161.735571,0.301924293 161.836778,0.335531665 161.836778,0.537175897 C161.836778,0.957268046 160.444236,0.419550095 160.444236,1.54539705 L160.444236,10.5201915 C160.444236,11.6460385 161.836778,11.1083205 161.836778,11.5284127 C161.836778,11.7300569 161.735571,11.7642063 161.467129,11.7642063 C160.879913,11.7642063 160.443695,11.7300569 159.437039,11.7300569 C158.430383,11.7300569 157.993624,11.7642063 157.406407,11.7642063 C157.137966,11.7642063 157.036759,11.7300569 157.036759,11.5284127 C157.036759,11.1083205 158.429841,11.6460385 158.429841,10.5201915 L158.429841,1.54539705 Z" id="Path"></path>
                    <path d="M165.626893,7.62941548 C165.173897,8.92384136 164.955788,9.4106062 164.955788,9.89845514 C164.955788,11.5793658 166.34833,11.1755353 166.34833,11.5793658 C166.34833,11.7647484 166.264442,11.7647484 166.079888,11.7647484 C165.727558,11.7647484 165.324355,11.730599 164.184019,11.730599 C163.630358,11.730599 163.092933,11.7647484 162.488939,11.7647484 C162.320622,11.7647484 162.27083,11.6969916 162.27083,11.5625621 C162.27083,11.2600958 162.925157,11.4281326 163.39493,11.0248442 C163.831689,10.6551631 164.384809,9.76456771 164.838345,8.62137501 C166.852199,3.57918511 167.137418,2.95744873 167.137418,2.82301924 C167.137418,2.70539344 166.734756,2.38612341 166.734756,2.18447918 C166.734756,1.93242389 167.019434,1.96603126 167.489748,0.974613786 C167.842078,0.235251604 167.75819,0 167.976299,0 C168.194407,0 168.17763,0.554521637 169.184286,2.77315024 L172.758457,10.6893125 C173.211453,11.68073 174,11.1934231 174,11.5625621 C174,11.7479447 173.882557,11.7647484 173.715322,11.7647484 C173.044218,11.7647484 172.373114,11.730599 171.701468,11.730599 C171.029823,11.730599 170.375496,11.7647484 169.687614,11.7647484 C169.519297,11.7647484 169.419173,11.7137953 169.419173,11.5625621 C169.419173,11.143012 170.593605,11.6303189 170.593605,10.7223778 C170.593605,10.5711446 170.425288,10.0670341 170.308386,9.81443672 L169.351521,7.62995754 L165.626893,7.62995754 L165.626893,7.62941548 Z M167.372305,3.09187822 L165.79521,7.22612702 L169.184827,7.22612702 L167.372305,3.09187822 Z" id="Shape"></path>
                </g>
            </g>
            <g id="Group" transform="translate(3.098328, 1186.000000)">
                <g id="Group-4" transform="translate(7.162542, 0.000000)">
                    <circle id="Oval" stroke="#303030" stroke-width="2" stroke-linecap="round" stroke-linejoin="round" cx="9.04347826" cy="9.04347826" r="9.04347826"></circle>
                    <path d="M11.7442555,6.15993366 C12.1558211,6.15993363 12.489461,5.82629378 12.489461,5.41472818 C12.489461,5.00316257 12.1558211,4.6695227 11.7442555,4.6695227 L6.32661167,4.6695227 C5.91504605,4.6695227 5.5814062,5.00316256 5.5814062,5.41472818 C5.5814062,5.8262938 5.91504605,6.15993366 6.32661167,6.15993366 L7.87676327,6.15993366 C8.46456799,6.1741062 8.99799068,6.50731688 9.26855871,7.02934005 L6.32661167,7.02934005 C5.91504605,7.02934005 5.5814062,7.36297991 5.5814062,7.77454553 C5.5814062,8.18611115 5.91504605,8.51975101 6.32661167,8.51975101 L9.26855871,8.51975101 C9.00189935,9.01655466 8.4782683,9.26495649 7.87676327,9.26495649 L6.32661167,9.26495649 C6.01901475,9.27320599 5.74632565,9.46501783 5.63459806,9.75172477 C5.52287046,10.0384317 5.59387134,10.364177 5.81477971,10.5783811 L9.6898482,14.2444195 C9.88100698,14.4364272 10.1614475,14.509309 10.4219037,14.4346686 C10.6823599,14.3600282 10.8816314,14.1496726 10.9420776,13.8855611 C11.0025237,13.6214496 10.9145828,13.3453608 10.7125185,13.1648652 L8.18341533,10.8018186 C9.46737264,10.6838786 10.5376165,9.76954095 10.8546044,8.51975101 L11.7442555,8.51975101 C12.1558211,8.51975101 12.489461,8.18611115 12.489461,7.77454553 C12.489461,7.36297991 12.1558211,7.02934005 11.7442555,7.02934005 L10.8546044,7.02934005 C10.796217,6.71989128 10.6785054,6.42466324 10.5079596,6.15993366 L11.7442555,6.15993366 Z" id="Path" fill="#D8232A" fill-rule="nonzero"></path>
                </g>
                <path d="M17.6917457,25.0172381 L24.7815771,23.8219406 L24.2431067,22.804059 C23.6264507,21.6383813 22.3208784,21.0120849 21.0257832,21.2606758 L17.1730735,22.0001958 C16.2046966,22.1857264 15.2055038,22.1300505 14.2643466,21.8361092 C12.9327941,21.422442 11.7477899,21.3095171 10.709334,21.4973344 C9.34690101,21.7437469 7.95560571,22.395217 6.53544808,23.4517448 L7.87571021,30.7693565 L8.85054041,29.9841232 C9.65036371,29.3398593 10.6673553,29.0279271 11.6908623,29.112938 L18.3681337,29.6675424 C20.3152422,29.8292664 22.2413334,29.1698633 23.6807849,27.8487404 L32.541917,19.7160278 L32.541917,19.7160278 C31.5189938,18.6470189 29.8589501,18.510047 28.6746438,19.3969352 L24.2266022,22.7279282 L24.2266022,22.7279282" id="Path-10" stroke="#303030" stroke-width="2" stroke-linecap="round" stroke-linejoin="round"></path>
                <rect id="Rectangle" stroke="#303030" stroke-width="2" stroke-linecap="round" stroke-linejoin="round" transform="translate(3.901672, 27.000000) rotate(-9.000000) translate(-3.901672, -27.000000) " x="0.901671812" y="21" width="6" height="12"></rect>
            </g>
            <g id="Group" transform="translate(6.000000, 1242.000000)">
                <polyline id="Path" stroke="#303030" points="28 7.2142857 28 34 0 34 0 4"></polyline>
                <line x1="8" y1="13.5" x2="20" y2="13.5" id="Path-13" stroke="#D8232A"></line>
                <line x1="8" y1="19.5" x2="20" y2="19.5" id="Path-13-Copy" stroke="#D8232A"></line>
                <line x1="8" y1="25.5" x2="20" y2="25.5" id="Path-13-Copy-2" stroke="#D8232A"></line>
                <path d="M28,0 C26.0670034,0.61504438 24.998592,2.68063974 25.6136364,4.61363636 C25.9749154,5.74908472 26.8645516,6.63872098 28,7 L28,7 L28,7 L3.5,7 C1.56700338,7 0,5.43299662 0,3.5 C0,1.56700338 1.56700338,0 3.5,0 L28,0 L28,0 Z" id="Rectangle" stroke="#303030"></path>
            </g>
            <g id="icon-email-loc" transform="translate(6.000000, 1286.000000)">
                <g id="Group" transform="translate(0.000000, 7.526000)">
                    <g id="a-link" stroke-linecap="round" stroke-linejoin="round" stroke="#FFFFFF" stroke-width="2">
                        <path d="M25.011,0.018 L28.875,2.103 C29.5680956,2.47715574 30,3.20136174 30,3.989 L30,18.903 C30,20.086 29.04,21.046 27.857,21.046 L2.143,21.046 C0.959453781,21.046 0,20.0865462 0,18.903 L0,3.989 C0,3.2 0.432,2.477 1.125,2.103 L5.023,0" id="a"></path>
                    </g>
                    <g id="Clipped">
                        <mask id="mask-20" fill="white">
                            <use xlink:href="#path-19"></use>
                        </mask>
                        <g id="a"></g>
                        <path d="M16.732,10.937 L30,21.046 L30,21.046 L0,21.046 L13.268,10.936 C14.2910039,10.1561881 15.7089961,10.1561881 16.732,10.936 L16.732,10.937 Z" id="Path" stroke="#FFFFFF" stroke-width="2" stroke-linecap="round" stroke-linejoin="round" mask="url(#mask-20)"></path>
                    </g>
                    <g id="Clipped">
                        <mask id="mask-22" fill="white">
                            <use xlink:href="#path-21"></use>
                        </mask>
                        <g id="a"></g>
                        <path d="M0,11.78 L12.214,2.474 M17.797,2.482 L30,11.78" id="Shape" stroke="#FFFFFF" stroke-width="2" stroke-linecap="round" stroke-linejoin="round" mask="url(#mask-22)" transform="translate(15.000000, 7.127000) scale(-1, 1) rotate(-180.000000) translate(-15.000000, -7.127000) "></path>
                    </g>
                </g>
                <path d="M5,13.446 L5,0 L25,0 L25,13.446 M10,4.998 L20.448,4.998 M10,8.748 L20.448,8.748 M12.143,12.498 L17.857,12.498" id="Shape" stroke="#FFFFFF" stroke-width="2" stroke-linecap="round" stroke-linejoin="round"></path>
            </g>
        </g>
    </g>
</svg>