<?xml version="1.0" encoding="UTF-8"?><svg version="1.1" width="32px" height="188px" viewBox="0 0 32.0 188.0" xmlns="http://www.w3.org/2000/svg" xmlns:xlink="http://www.w3.org/1999/xlink"><defs><clipPath id="i0"><path d="M7.23478261,0 C11.2304427,0 14.4695652,3.23912251 14.4695652,7.23478261 C14.4695652,11.2304427 11.2304427,14.4695652 7.23478261,14.4695652 C3.23912251,14.4695652 0,11.2304427 0,7.23478261 C0,3.23912251 3.23912251,0 7.23478261,0 Z"></path></clipPath><clipPath id="i1"><path d="M4.93027945,0 C5.25953194,0 5.52644384,0.2669119 5.52644384,0.596164384 C5.52644384,0.925416867 5.25953194,1.19232875 4.93027945,1.19232877 L3.94124274,1.19232877 C4.07767937,1.40411244 4.17184868,1.64029487 4.21855854,1.88785388 L4.93027945,1.88785388 C5.25953195,1.88785388 5.52644384,2.15476577 5.52644384,2.48401826 C5.52644384,2.81327076 5.25953195,3.08018265 4.93027945,3.08018265 L4.21855854,3.08018265 C3.96496822,4.0800146 3.10877316,4.81148473 2.08160731,4.90583671 L4.10488986,6.79627397 C4.26654125,6.94067045 4.33689402,7.16154151 4.28853711,7.3728307 C4.24018019,7.5841199 4.08076295,7.75240441 3.872398,7.81211673 C3.66403304,7.87182905 3.43968063,7.81352357 3.28675361,7.65991744 L0.186698813,4.72708676 C0.00997211543,4.55572344 -0.0468285854,4.2951272 0.0425534888,4.06576165 C0.131935563,3.8363961 0.350086842,3.68294663 0.596164384,3.67634703 L1.83628566,3.67634703 C2.31748968,3.67634703 2.73639452,3.47762557 2.94972201,3.08018265 L0.596164384,3.08018265 C0.266911886,3.08018265 0,2.81327076 0,2.48401826 C0,2.15476577 0.266911886,1.88785388 0.596164384,1.88785388 L2.94972201,1.88785388 C2.73326759,1.47023535 2.30652943,1.2036668 1.83628566,1.19232877 L0.596164384,1.19232877 C0.266911886,1.19232877 0,0.925416881 0,0.596164384 C0,0.266911886 0.266911886,0 0.596164384,0 Z"></path></clipPath><clipPath id="i2"><path d="M21.9917665,0 C23.2582363,0.0014217926 24.2845458,1.01843294 24.2859472,2.27339556 L24.2859472,5.63621149 L28.5894357,2.45560559 C29.0465628,2.11603992 29.6585188,2.06285792 30.1683159,2.3183931 C30.67932,2.57080388 31.0016388,3.08855727 31,3.65433997 L31,15.3456 C31,15.9109007 30.6781044,16.4278276 30.1683202,16.6815714 C29.6585359,16.9353153 29.0479233,16.8824928 28.5902228,16.5450544 L24.2859472,13.3690082 L24.2859472,16.7266044 C24.2845458,17.9815671 23.2582363,18.9985782 21.9917665,19 L2.29418071,19 C1.02771086,18.9985782 0.00140140601,17.9815671 0,16.7266044 L0,2.27339556 C0.00140140601,1.01843294 1.02771086,0.0014217926 2.29418071,0 Z M21.9917665,1.43992118 L2.29418071,1.43992118 C1.82987584,1.44045025 1.4536249,1.81330937 1.45312441,2.27339556 L1.45312441,16.7266044 C1.4536249,17.1866906 1.82987584,17.5595498 2.29418071,17.5600788 L21.9917665,17.5600788 C22.4560713,17.5595498 22.8323223,17.1866906 22.8328228,16.7266044 L22.8328228,2.27339556 C22.8323223,1.81330937 22.4560713,1.44045025 21.9917665,1.43992118 Z M29.5160448,3.60480807 C29.4971304,3.59541773 29.4744843,3.59742892 29.4575564,3.6100024 L24.2859472,7.43281315 L24.2859472,11.5737265 L29.457738,15.3901176 C29.4729866,15.4063436 29.4981562,15.4084955 29.5159841,15.3950973 C29.5374316,15.3887149 29.5506889,15.3674641 29.546863,15.3456 L29.546863,3.65433997 C29.5468917,3.63337664 29.5349592,3.61419841 29.5160448,3.60480807 Z"></path></clipPath><clipPath id="i3"><path d="M7.5,0 C9.98528137,-4.56538782e-16 12,2.01471863 12,4.5 C12,6.98528137 9.98528137,9 7.5,9 L4.5,9 C2.01471863,9 3.04359188e-16,6.98528137 0,4.5 C-3.04359188e-16,2.01471863 2.01471863,4.56538782e-16 4.5,0 L7.5,0 Z"></path></clipPath><clipPath id="i4"><path d="M7.23478261,0 C11.2304427,0 14.4695652,3.23912251 14.4695652,7.23478261 C14.4695652,11.2304427 11.2304427,14.4695652 7.23478261,14.4695652 C3.23912251,14.4695652 0,11.2304427 0,7.23478261 C0,3.23912251 3.23912251,0 7.23478261,0 Z"></path></clipPath><clipPath id="i5"><path d=""></path></clipPath><clipPath id="i6"><path d="M4.93027945,0 C5.25953194,0 5.52644384,0.2669119 5.52644384,0.596164384 C5.52644384,0.925416867 5.25953194,1.19232875 4.93027945,1.19232877 L3.94124274,1.19232877 C4.07767937,1.40411244 4.17184868,1.64029487 4.21855854,1.88785388 L4.93027945,1.88785388 C5.25953195,1.88785388 5.52644384,2.15476577 5.52644384,2.48401826 C5.52644384,2.81327076 5.25953195,3.08018265 4.93027945,3.08018265 L4.21855854,3.08018265 C3.96496822,4.0800146 3.10877316,4.81148473 2.08160731,4.90583671 L4.10488986,6.79627397 C4.26654125,6.94067045 4.33689402,7.16154151 4.28853711,7.3728307 C4.24018019,7.5841199 4.08076295,7.75240441 3.872398,7.81211673 C3.66403304,7.87182905 3.43968063,7.81352357 3.28675361,7.65991744 L0.186698813,4.72708676 C0.00997211543,4.55572344 -0.0468285854,4.2951272 0.0425534888,4.06576165 C0.131935563,3.8363961 0.350086842,3.68294663 0.596164384,3.67634703 L1.83628566,3.67634703 C2.31748968,3.67634703 2.73639452,3.47762557 2.94972201,3.08018265 L0.596164384,3.08018265 C0.266911886,3.08018265 0,2.81327076 0,2.48401826 C0,2.15476577 0.266911886,1.88785388 0.596164384,1.88785388 L2.94972201,1.88785388 C2.73326759,1.47023535 2.30652943,1.2036668 1.83628566,1.19232877 L0.596164384,1.19232877 C0.266911886,1.19232877 0,0.925416881 0,0.596164384 C0,0.266911886 0.266911886,0 0.596164384,0 Z"></path></clipPath></defs><g transform="translate(0.9999999999999982 4.799999999999999)"><path d="M4,0 L24.8,0 C27.009139,1.55629733e-15 28.8,1.790861 28.8,4 L28.8,18.4 C28.8,20.609139 27.009139,22.4 24.8,22.4 L4,22.4 C1.790861,22.4 2.705415e-16,20.609139 0,18.4 L0,4 C-2.705415e-16,1.790861 1.790861,-3.82769592e-17 4,0 Z" stroke="#2F302F" stroke-width="2" fill="none" stroke-linecap="round" stroke-linejoin="round"></path><g transform="translate(12.47999999999993 7.199999999999996)"><path d="M0,6.26397015 L0,1.5434051 C-5.03514196e-16,1.05816326 0.393366232,0.664797025 0.878608071,0.664797025 C1.03646311,0.664797025 1.19140265,0.707325014 1.32713858,0.787910206 L5.32146285,3.15930452 C5.73871116,3.40702107 5.8761438,3.9460816 5.62842724,4.36332991 C5.55276622,4.49077166 5.44609618,4.59700272 5.3183435,4.67213754 L1.32401922,7.02130828 C0.905752924,7.26730207 0.367263726,7.12764761 0.121269939,6.7093813 C0.0418684837,6.57437402 -4.24908114e-16,6.42059568 0,6.26397015 Z" stroke="#D82329" stroke-width="2" fill="none" stroke-linecap="round" stroke-linejoin="round"></path></g></g><g transform="translate(0.0 52.0)"><g transform="translate(1.0 4.799999999999995)"><g transform="translate(0.0 10.40000000000001)"><path d="M1,0 L8.6,0 C9.15228475,-1.01453063e-16 9.6,0.44771525 9.6,1 L9.6,12 L9.6,12 L0,12 L0,1 C-6.76353751e-17,0.44771525 0.44771525,1.01453063e-16 1,0 Z" stroke="#2F302F" stroke-width="2" fill="none" stroke-linecap="round" stroke-linejoin="round"></path></g><g transform="translate(13.599999999999998 0.0)"><path d="M1,0 L8.6,0 C9.15228475,-1.01453063e-16 9.6,0.44771525 9.6,1 L9.6,22.4 L9.6,22.4 L0,22.4 L0,1 C-6.76353751e-17,0.44771525 0.44771525,1.01453063e-16 1,0 Z" stroke="#2F302F" stroke-width="2" fill="none" stroke-linecap="round" stroke-linejoin="round"></path></g><g transform="translate(4.0 3.2000000000000037)"><g clip-path="url(#i0)"><polygon points="0,0 14.4695652,0 14.4695652,14.4695652 0,14.4695652 0,0" stroke="none" fill="#FFFFFF"></polygon></g><path d="M7.23478261,14.4695652 C11.2304427,14.4695652 14.4695652,11.2304427 14.4695652,7.23478261 C14.4695652,3.23912251 11.2304427,0 7.23478261,0 C3.23912251,0 0,3.23912251 0,7.23478261 C0,11.2304427 3.23912251,14.4695652 7.23478261,14.4695652 Z" stroke="#2F302F" stroke-width="2" fill="none" stroke-linecap="round" stroke-linejoin="round"></path><g transform="translate(4.4651249561889035 3.735618159552177)"><g clip-path="url(#i1)"><polygon points="0,0 5.52644384,0 5.52644384,7.8351577 0,7.8351577 0,0" stroke="none" fill="#D82329"></polygon></g></g></g></g></g><g transform="translate(0.0 156.0)"><g transform="translate(0.0 8.0)"><g clip-path="url(#i2)"><polygon points="0,0 31.0000062,0 31.0000062,19 0,19 0,0" stroke="none" fill="#2F302F"></polygon></g><g transform="translate(6.100000000000023 5.0)"><g clip-path="url(#i3)"><path d="M4.5,0 L7.5,0 C9.98528137,-4.56538782e-16 12,2.01471863 12,4.5 C12,6.98528137 9.98528137,9 7.5,9 L4.5,9 C2.01471863,9 3.04359188e-16,6.98528137 0,4.5 C-3.04359188e-16,2.01471863 2.01471863,4.56538782e-16 4.5,0 Z" stroke="#D82329" stroke-width="3" fill="none" stroke-miterlimit="5"></path></g></g></g></g><g transform="translate(0.0 104.0)"><g transform="translate(0.7999999999999972 3.200000000000003)"><polygon points="0,11.2 12,0 24,11.2 21,11.2 21,25.6 12,25.6 3,25.6 3,11.2 0,11.2 0,11.2" stroke="#2F302F" stroke-width="1.6" fill="none" stroke-linecap="round" stroke-linejoin="round"></polygon><g transform="translate(6.273840870131339 2.254462536097364) scale(-1.0 1.0)"><path d="M0,2.95110712 L0,0 L3.28592087,0 L3.28592087,5.74553734" stroke="#2F302F" stroke-width="1.6" fill="none" stroke-linecap="round" stroke-linejoin="round"></path></g><g transform="translate(8.799999999999997 15.999999999999984)"><path d="M0,8.8 L0,0 L6.4,0 L6.4,8.8" stroke="#2F302F" stroke-width="1.6" fill="none" stroke-linecap="round" stroke-linejoin="round"></path></g><g transform="translate(11.439999999999957 4.56000000000013)"><g clip-path="url(#i4)"><polygon points="0,0 14.4695652,0 14.4695652,14.4695652 0,14.4695652 0,0" stroke="none" fill="#FFFFFF"></polygon></g><path d="M7.23478261,14.4695652 C11.2304427,14.4695652 14.4695652,11.2304427 14.4695652,7.23478261 C14.4695652,3.23912251 11.2304427,0 7.23478261,0 C3.23912251,0 0,3.23912251 0,7.23478261 C0,11.2304427 3.23912251,14.4695652 7.23478261,14.4695652 Z" stroke="#2F302F" stroke-width="1.6" fill="none" stroke-linecap="round" stroke-linejoin="round"></path><g transform="translate(12.436171880345512 12.70553489840168)"><g clip-path="url(#i5)"><polygon points="0,0 3.16810806,0 3.16810806,3.16810806 0,3.16810806 0,0" stroke="none" fill="#FFFFFF"></polygon></g><path d="M0,0 L3.16810806,3.16810806" stroke="#2F302F" stroke-width="1.6" fill="none" stroke-linecap="round" stroke-linejoin="round"></path></g><g transform="translate(4.465124956188902 3.73561815955182)"><g clip-path="url(#i6)"><polygon points="0,0 5.52644384,0 5.52644384,7.8351577 0,7.8351577 0,0" stroke="none" fill="#D82329"></polygon></g></g></g></g></g></svg>